<svg width="121" height="121" viewBox="0 0 121 121" fill="none" xmlns="http://www.w3.org/2000/svg">
<path d="M60.1953 0C44.2306 0 28.9196 6.34199 17.6308 17.6308C6.34199 28.9196 0 44.2306 0 60.1954C0.00212996 62.2509 0.113761 64.3049 0.334419 66.3487C1.89944 81.1338 8.88076 94.8167 19.9333 104.761C30.9859 114.705 45.3276 120.208 60.1953 120.208C75.0631 120.208 89.4048 114.705 100.457 104.761C111.51 94.8167 118.491 81.1338 120.056 66.3487C120.277 64.3049 120.389 62.2509 120.391 60.1954C120.391 44.2306 114.049 28.9196 102.76 17.6308C91.4711 6.34199 76.1601 0 60.1953 0V0ZM96.4463 89.758C96.3794 89.758 96.045 90.293 95.9781 90.293C91.5996 95.5274 86.126 99.7374 79.9434 102.626C73.7607 105.515 67.0196 107.012 60.1953 107.012C53.3711 107.012 46.63 105.515 40.4473 102.626C34.2647 99.7374 28.7911 95.5274 24.4126 90.293C24.3457 90.293 24.0113 89.758 23.9444 89.758C23.5771 89.225 23.3684 88.5988 23.3424 87.9521C23.3549 87.2504 23.5785 86.5688 23.9842 85.9961C24.3898 85.4234 24.9587 84.9863 25.6165 84.7417C30.5659 83.0696 35.3146 81.4644 36.6523 81.13C36.6212 80.9791 36.623 80.8234 36.6577 80.6733C36.6923 80.5232 36.7589 80.3824 36.8529 80.2605C37.0283 79.613 37.3981 79.035 37.9124 78.6044C38.4267 78.1739 39.0608 77.9115 39.7289 77.8527L48.2232 77.1838C48.1516 75.3561 47.7197 73.5604 46.9524 71.9V71.8331C46.2357 69.9439 45.2194 68.1823 43.9426 66.6162C40.4449 62.0534 38.5839 56.4466 38.6588 50.6979C38.2889 44.7861 40.254 38.9654 44.1314 34.4876C48.0089 30.0098 53.4889 27.2326 59.3927 26.7535H60.998C66.9018 27.2326 72.3818 30.0098 76.2593 34.4876C80.1367 38.9654 82.1018 44.7861 81.7319 50.6979C81.8068 56.4466 79.9458 62.0534 76.4481 66.6162C75.1713 68.1823 74.155 69.9439 73.4383 71.8331V71.9C72.671 73.5604 72.2391 75.3561 72.1675 77.1838L80.6618 77.8527C81.3299 77.9115 81.964 78.1739 82.4783 78.6044C82.9926 79.035 83.3624 79.613 83.5378 80.2605C83.6318 80.3824 83.6984 80.5232 83.733 80.6733C83.7677 80.8234 83.7695 80.9791 83.7384 81.13C85.0761 81.4644 89.8248 83.0696 94.7742 84.7417C95.2646 84.899 95.711 85.1697 96.0772 85.5319C96.4435 85.894 96.7192 86.3373 96.882 86.8259C97.0449 87.3145 97.0903 87.8346 97.0146 88.344C96.9389 88.8534 96.7442 89.3378 96.4463 89.758V89.758Z" fill="#BDB8B8"/>
</svg>
