<svg width="242" height="206" viewBox="0 0 242 206" fill="none" xmlns="http://www.w3.org/2000/svg">
<path opacity="0.18" d="M53.6982 39.6532C70.2632 25.319 95.5836 15.5013 113.478 28.129C122.552 34.5268 127.429 45.2354 134.796 53.5419C142.164 61.8484 155.203 67.7082 164.122 61.0808C168.235 58.031 170.373 53.0621 173.536 49.0357C182.946 37.042 201.7 34.8283 214.965 42.3261C228.23 49.8238 235.869 65.21 236.513 80.4386C237.198 97.2777 230.389 113.476 228.409 130.212C226.556 146.069 229.062 162.13 235.656 176.669C237.853 181.491 240.532 186.264 241.084 191.521C241.636 196.777 239.34 202.829 234.351 204.625C232.325 205.348 230.115 205.31 227.967 205.228L21.3804 199.042C17.1175 198.916 12.6901 198.744 8.91036 196.774C-1.50016 191.336 -1.13692 176.066 3.47893 165.268C8.09479 154.471 15.5891 143.985 14.5474 132.286C12.9985 114.919 -7.6889 98.7615 6.05244 81.5694C11.0418 75.319 20.4894 71.272 26.5445 65.8988C35.9647 57.5307 44.1684 47.9014 53.6982 39.6532V39.6532Z" fill="#68E1FD"/>
<path d="M221.421 21.7106C221.421 21.7106 224.201 35.1024 226.562 36.1271C228.923 37.1517 231.513 32.9436 231.702 32.9813C231.89 33.019 234.443 35.7912 234.443 35.7912C234.443 35.7912 232.97 40.1912 228.436 41.5722C225.921 42.3364 218.594 34.2046 217.573 29.3078C216.725 25.1876 216.609 20.9502 217.231 16.7898C217.231 16.7898 220.112 17.5437 221.421 21.7106V21.7106Z" fill="#68E1FD"/>
<path d="M221.421 21.7106C221.421 21.7106 224.201 35.1024 226.562 36.1271C228.923 37.1517 231.513 32.9436 231.702 32.9813C231.89 33.019 234.443 35.7912 234.443 35.7912C234.443 35.7912 232.97 40.1912 228.436 41.5722C225.921 42.3364 218.594 34.2046 217.573 29.3078C216.725 25.1876 216.609 20.9502 217.231 16.7898C217.231 16.7898 220.112 17.5437 221.421 21.7106V21.7106Z" fill="url(#paint0_linear_213_129)"/>
<path d="M203.4 29.8458L153.311 68.9075L91.7388 27.3819L17.1895 94.1525" stroke="#3F3D56" stroke-width="1.37071" stroke-miterlimit="10"/>
<path d="M17.3951 121.625H42.9382V200.427H17.3951V121.625Z" fill="#68E1FD"/>
<path d="M140.539 96.3971H166.083V200.427H140.539V96.3971Z" fill="#68E1FD"/>
<path d="M78.9672 60.8066H104.51V200.427H78.9672V60.8066Z" fill="#68E1FD"/>
<path d="M202.112 53.6344H227.655V200.423H202.112V53.6344Z" fill="#68E1FD"/>
<path d="M21.5719 98.5383C23.9928 96.1174 23.9928 92.1924 21.5719 89.7715C19.1511 87.3506 15.2261 87.3506 12.8052 89.7715C10.3843 92.1924 10.3843 96.1174 12.8052 98.5383C15.2261 100.959 19.1511 100.959 21.5719 98.5383Z" fill="#68E1FD"/>
<path d="M91.7388 33.5844C95.1624 33.5844 97.9378 30.809 97.9378 27.3854C97.9378 23.9617 95.1624 21.1863 91.7388 21.1863C88.3152 21.1863 85.5398 23.9617 85.5398 27.3854C85.5398 30.809 88.3152 33.5844 91.7388 33.5844Z" fill="#68E1FD"/>
<path d="M153.308 74.0751C156.731 74.0751 159.507 71.2997 159.507 67.8761C159.507 64.4524 156.731 61.677 153.308 61.677C149.884 61.677 147.109 64.4524 147.109 67.8761C147.109 71.2997 149.884 74.0751 153.308 74.0751Z" fill="#68E1FD"/>
<path d="M21.5719 98.5383C23.9928 96.1174 23.9928 92.1924 21.5719 89.7715C19.1511 87.3506 15.2261 87.3506 12.8052 89.7715C10.3843 92.1924 10.3843 96.1174 12.8052 98.5383C15.2261 100.959 19.1511 100.959 21.5719 98.5383Z" fill="url(#paint1_linear_213_129)"/>
<path d="M91.7388 33.5844C95.1624 33.5844 97.9378 30.809 97.9378 27.3854C97.9378 23.9617 95.1624 21.1863 91.7388 21.1863C88.3152 21.1863 85.5398 23.9617 85.5398 27.3854C85.5398 30.809 88.3152 33.5844 91.7388 33.5844Z" fill="url(#paint2_linear_213_129)"/>
<path d="M153.308 74.0751C156.731 74.0751 159.507 71.2997 159.507 67.8761C159.507 64.4524 156.731 61.677 153.308 61.677C149.884 61.677 147.109 64.4524 147.109 67.8761C147.109 71.2997 149.884 74.0751 153.308 74.0751Z" fill="url(#paint3_linear_213_129)"/>
<path d="M236.64 204.964H5.19232C4.59535 204.966 4.0039 204.85 3.45186 204.623C2.89982 204.395 2.39804 204.061 1.97528 203.64C1.55253 203.218 1.2171 202.718 0.988239 202.166C0.759375 201.615 0.641568 201.024 0.641571 200.427C0.641568 199.83 0.759375 199.239 0.988239 198.687C1.2171 198.136 1.55253 197.635 1.97528 197.214C2.39804 196.792 2.89982 196.458 3.45186 196.231C4.0039 196.004 4.59535 195.888 5.19232 195.89H236.64C237.843 195.89 238.997 196.368 239.848 197.219C240.699 198.07 241.177 199.224 241.177 200.427C241.177 201.63 240.699 202.784 239.848 203.635C238.997 204.486 237.843 204.964 236.64 204.964Z" fill="#68E1FD"/>
<path d="M236.64 204.964H5.19232C4.59535 204.966 4.0039 204.85 3.45186 204.623C2.89982 204.395 2.39804 204.061 1.97528 203.64C1.55253 203.218 1.2171 202.718 0.988239 202.166C0.759375 201.615 0.641568 201.024 0.641571 200.427C0.641568 199.83 0.759375 199.239 0.988239 198.687C1.2171 198.136 1.55253 197.635 1.97528 197.214C2.39804 196.792 2.89982 196.458 3.45186 196.231C4.0039 196.004 4.59535 195.888 5.19232 195.89H236.64C237.843 195.89 238.997 196.368 239.848 197.219C240.699 198.07 241.177 199.224 241.177 200.427C241.177 201.63 240.699 202.784 239.848 203.635C238.997 204.486 237.843 204.964 236.64 204.964Z" fill="url(#paint4_linear_213_129)"/>
<path d="M209.52 17.4889C209.52 17.4889 204.219 18.6574 202.112 21.4365C200.004 24.2156 199.768 46.8734 201.426 48.3777C203.085 49.8821 221.857 46.8049 220.387 44.0189C217.597 38.7348 219.986 16.7761 217.251 16.8035C214.516 16.8309 209.52 17.4889 209.52 17.4889V17.4889Z" fill="#68E1FD"/>
<path d="M207.029 25.7782C207.029 25.7782 202.396 45.0195 205.281 48.5045C205.281 48.5045 202.475 49.2653 201.44 48.3675C200.405 47.4697 199.757 36.0311 201.526 30.891C203.294 25.7508 207.029 25.7782 207.029 25.7782V25.7782Z" fill="url(#paint5_linear_213_129)"/>
<path d="M209.873 12.1225C209.873 12.1225 209.349 16.2621 209.308 17.53C209.267 18.7979 213.242 20.8128 214.14 19.5621C214.403 19.2051 214.586 18.7957 214.676 18.3616C214.767 17.9276 214.762 17.4791 214.664 17.0468L214.4 14.3054L209.873 12.1225Z" fill="url(#paint6_linear_213_129)"/>
<path d="M209.568 7.62662C209.568 7.62662 209.226 13.3939 211.203 14.5967C213.18 15.7995 214.287 16.9954 216.73 14.2129C219.173 11.4303 218.906 6.81105 218.372 6.13597C217.837 5.4609 211.251 1.42759 209.568 7.62662V7.62662Z" fill="url(#paint7_linear_213_129)"/>
<path d="M207.447 3.78178C206.916 5.05312 206.988 6.48208 207.067 7.85621H207.629C207.519 8.58269 207.457 9.44966 208.016 9.91227C208.17 10.0425 208.359 10.1282 208.509 10.255C209.082 10.7518 209.195 11.9957 209.88 12.311C209.796 11.283 209.708 10.255 209.616 9.22692C209.572 8.70262 209.489 7.81509 210 7.68487C210.117 7.65746 210.243 7.66431 210.343 7.63005C210.551 7.55009 210.727 7.40143 210.84 7.20855C211.038 6.91042 211.234 6.6123 211.429 6.31074C211.652 5.88167 212.004 5.53389 212.436 5.31698C212.885 5.14906 213.516 5.41293 213.523 5.89267C214.489 5.18676 215.85 5.38551 216.95 5.83785C217.532 6.0507 218.059 6.39147 218.492 6.83504C218.706 7.06023 218.866 7.33222 218.957 7.62957C219.049 7.92691 219.07 8.24146 219.019 8.54842C219.818 5.78644 220.712 -0.278937 214.756 0.862177C213.883 1.04037 213.156 1.69146 212.272 1.75314C212.378 1.75314 211.994 1.32822 211.929 1.29738C211.624 1.16716 211.381 1.34535 211.11 1.46186C210.689 1.60251 210.251 1.69112 209.808 1.72572C209.278 1.85386 208.787 2.10758 208.377 2.46543C207.966 2.82329 207.647 3.27479 207.447 3.78178V3.78178Z" fill="#3F3D56"/>
<path d="M203.311 20.2303C203.311 20.2303 207.738 21.481 207.012 25.7748C207.012 25.7748 201.159 31.7545 201.735 32.971C202.31 34.1875 212.933 40.5407 212.933 40.5407L209.548 43.3267C209.548 43.3267 196.93 38.8102 196.063 34.7598C195.196 30.7093 197.29 24.4281 203.311 20.2303V20.2303Z" fill="#68E1FD"/>
<path d="M234.875 22.934L231.174 36.4903L221.432 37.2373L224.396 22.4542L234.875 22.934Z" fill="#68E1FD"/>
<path d="M234.875 22.934L231.174 36.4903L221.432 37.2373L224.396 22.4542L234.875 22.934Z" fill="url(#paint8_linear_213_129)"/>
<path d="M232.062 33.0464C232.041 33.1192 232.041 33.1963 232.062 33.2691C232.107 33.3606 232.179 33.4368 232.267 33.4884C232.85 33.9476 233.096 34.8249 233.799 35.0579C234.396 34.475 234.882 33.7888 235.235 33.0327C235.686 32.1785 235.808 31.1883 235.577 30.2501C235.307 29.4452 234.732 28.7777 233.977 28.3894C233.814 28.2792 233.628 28.2079 233.433 28.1812C233.238 28.1544 233.04 28.1729 232.853 28.2352C232.705 28.3211 232.577 28.4388 232.479 28.5798C232.382 28.7208 232.316 28.8816 232.288 29.0508C232.205 29.3935 232.192 29.7361 232.086 30.0582C231.914 30.4224 231.766 30.7966 231.64 31.1788C231.61 31.3283 231.617 31.4829 231.662 31.6288C231.706 31.7747 231.786 31.9074 231.894 32.0149C232.017 32.1451 232.072 32.0903 232.13 32.2548C232.149 32.5206 232.126 32.7877 232.062 33.0464V33.0464Z" fill="url(#paint9_linear_213_129)"/>
<path d="M215.233 40.904C215.316 40.8924 215.401 40.8996 215.481 40.9251C215.561 40.9506 215.634 40.9937 215.695 41.0513C215.741 41.1375 215.758 41.2359 215.745 41.3326C215.731 41.4292 215.688 41.5191 215.62 41.5893C215.486 41.7275 215.37 41.8831 215.277 42.0519C215.85 42.4982 216.462 42.8905 217.107 43.2239C217.556 43.4603 218.087 43.7585 218.108 44.2519C218.091 44.4482 218.025 44.6371 217.917 44.8016C217.809 44.9661 217.661 45.1011 217.487 45.1943C216.429 45.8357 215.194 46.1248 213.961 46.0201C213.228 46.0324 212.507 45.8325 211.885 45.4444C211.508 45.1477 211.182 44.7925 210.918 44.3924L210.075 43.2547C210.046 43.2323 210.027 43.1992 210.022 43.1627C210.016 43.1261 210.026 43.089 210.048 43.0594L210.075 43.032L211.079 41.9286C212.269 40.6367 213.574 40.8868 215.233 40.904V40.904Z" fill="url(#paint10_linear_213_129)"/>
<path d="M229.488 75.4287C228.587 76.1894 227.823 75.1442 227.675 74.291C227.526 73.3377 227.451 72.3741 227.453 71.4091C227.336 66.2758 227.222 61.1425 227.11 56.0092C227.158 55.5199 227.037 55.029 226.767 54.6179C226.39 54.1861 225.739 54.1279 225.187 54.1039L224.228 54.0593L210.113 53.3911C208.365 53.3089 206.57 53.2163 204.973 52.5002C203.376 51.784 202.002 50.2967 201.954 48.5457C201.981 49.4949 214.29 46.8631 215.339 46.5102C217.285 45.8625 218.896 44.9236 220.914 44.9613C223.224 45.0058 225.606 45.417 227.905 45.6192C229.875 45.794 231.99 46.0236 233.484 47.3155C235.084 48.6862 235.584 50.9444 235.715 53.0484C236.184 61.3686 233.251 67.9926 229.488 75.4287Z" fill="#3F3D56"/>
<path d="M228.556 75.2676L227.185 74.5103C227.37 73.4869 227.463 72.449 227.463 71.4091C227.346 66.2758 227.232 61.1425 227.12 56.0092C227.168 55.5199 227.047 55.029 226.777 54.6179C226.401 54.1861 225.749 54.1279 225.198 54.1039L224.238 54.0593L222.47 50.6326C222.47 50.6326 228.395 50.6531 229.742 52.5755C231.088 54.498 228.556 75.2676 228.556 75.2676V75.2676Z" fill="#25233A"/>
<path d="M226.298 58.6101C226.298 59.8985 225.862 61.1493 225.396 62.3521C224.368 65.0079 223.21 67.5951 222.038 70.1823C220.77 72.974 219.504 75.7691 218.238 78.5676C218.015 79.0576 217.71 79.6162 217.176 79.695C216.549 79.7841 216.175 79.2118 216.007 78.5402C215.932 78.241 215.897 77.9335 215.901 77.6252C215.935 72.3411 216.152 67.0616 216.552 61.7867C216.6 61.4757 216.569 61.1576 216.463 60.8615C216.278 60.5626 216.01 60.3244 215.692 60.1761C213.262 58.7574 210.627 57.7431 208.153 56.4067C205.679 55.0702 203.301 53.3706 201.841 50.9718C201.601 50.6567 201.488 50.2627 201.526 49.8684C201.666 49.2036 202.475 48.9706 203.143 48.8643L216.925 46.6541C220.01 46.1572 222.319 50.6017 223.858 52.7537C225.105 54.498 226.298 56.4375 226.298 58.6101V58.6101Z" fill="#3F3D56"/>
<path d="M215.897 77.6081L214.869 82.1725C214.869 82.1725 218.351 84.6227 219.362 84.914C220.373 85.2052 223.734 84.914 223.734 84.914C223.734 84.914 224.262 83.5193 222.484 82.8956C221.368 82.5107 220.222 82.2219 219.057 82.032C218.362 81.2346 217.995 80.2038 218.029 79.1467C218.029 79.1467 216.699 79.39 215.897 77.6081Z" fill="#25233A"/>
<path d="M227.312 73.8935L226.284 78.4545C226.284 78.4545 229.766 80.9081 230.776 81.1959C231.787 81.4838 235.149 81.1959 235.149 81.1959C235.149 81.1959 235.677 79.8012 233.898 79.1775C232.782 78.7932 231.636 78.5032 230.471 78.3106C229.776 77.5147 229.409 76.4848 229.443 75.4287C229.443 75.4287 228.114 75.6754 227.312 73.8935V73.8935Z" fill="#25233A"/>
<path d="M217.176 79.6779L216.007 78.523C215.932 78.2239 215.897 77.9164 215.901 77.6081C215.935 72.324 216.152 67.0445 216.552 61.7696C216.6 61.4585 216.569 61.1405 216.463 60.8443C216.278 60.5455 216.01 60.3073 215.692 60.159C213.262 58.7403 210.627 57.726 208.153 56.3895C205.679 55.0531 203.301 53.3534 201.841 50.9547C201.601 50.6395 201.488 50.2456 201.526 49.8513C201.666 49.1865 202.475 48.9534 203.143 48.8472C203.143 48.8472 213.526 55.3238 217.501 58.0138C221.476 60.7038 217.176 79.6779 217.176 79.6779V79.6779Z" fill="#25233A"/>
<defs>
<linearGradient id="paint0_linear_213_129" x1="224.06" y1="28.6978" x2="193.586" y2="59.34" gradientUnits="userSpaceOnUse">
<stop stop-opacity="0"/>
<stop offset="1"/>
</linearGradient>
<linearGradient id="paint1_linear_213_129" x1="16.2795" y1="-0.76249" x2="19.4416" y2="281.262" gradientUnits="userSpaceOnUse">
<stop stop-opacity="0"/>
<stop offset="1"/>
</linearGradient>
<linearGradient id="paint2_linear_213_129" x1="91.4235" y1="-0.765539" x2="94.5693" y2="280.113" gradientUnits="userSpaceOnUse">
<stop stop-opacity="0"/>
<stop offset="1"/>
</linearGradient>
<linearGradient id="paint3_linear_213_129" x1="152.533" y1="-1.45088" x2="155.682" y2="279.424" gradientUnits="userSpaceOnUse">
<stop stop-opacity="0"/>
<stop offset="1"/>
</linearGradient>
<linearGradient id="paint4_linear_213_129" x1="120.191" y1="174.963" x2="123.837" y2="304.214" gradientUnits="userSpaceOnUse">
<stop stop-opacity="0"/>
<stop offset="1"/>
</linearGradient>
<linearGradient id="paint5_linear_213_129" x1="208.646" y1="36.4869" x2="163.173" y2="47.6718" gradientUnits="userSpaceOnUse">
<stop stop-opacity="0"/>
<stop offset="1"/>
</linearGradient>
<linearGradient id="paint6_linear_213_129" x1="211.083" y1="13.7331" x2="212.954" y2="19.1988" gradientUnits="userSpaceOnUse">
<stop stop-color="#ECC4D7"/>
<stop offset="0.42" stop-color="#EFD4D1"/>
<stop offset="1" stop-color="#F2EAC9"/>
</linearGradient>
<linearGradient id="paint7_linear_213_129" x1="213.677" y1="7.78082" x2="215.281" y2="12.6503" gradientUnits="userSpaceOnUse">
<stop stop-color="#ECC4D7"/>
<stop offset="0.42" stop-color="#EFD4D1"/>
<stop offset="1" stop-color="#F2EAC9"/>
</linearGradient>
<linearGradient id="paint8_linear_213_129" x1="223.663" y1="28.2181" x2="274.828" y2="49.4914" gradientUnits="userSpaceOnUse">
<stop stop-opacity="0"/>
<stop offset="1"/>
</linearGradient>
<linearGradient id="paint9_linear_213_129" x1="231.647" y1="31.614" x2="235.725" y2="31.614" gradientUnits="userSpaceOnUse">
<stop stop-color="#ECC4D7"/>
<stop offset="0.42" stop-color="#EFD4D1"/>
<stop offset="1" stop-color="#F2EAC9"/>
</linearGradient>
<linearGradient id="paint10_linear_213_129" x1="210.021" y1="43.4501" x2="218.108" y2="43.4501" gradientUnits="userSpaceOnUse">
<stop stop-color="#ECC4D7"/>
<stop offset="0.42" stop-color="#EFD4D1"/>
<stop offset="1" stop-color="#F2EAC9"/>
</linearGradient>
</defs>
</svg>
