<svg width="241" height="197" viewBox="0 0 241 197" fill="none" xmlns="http://www.w3.org/2000/svg">
<path d="M83.9655 156.701H158.921V192.027H83.9655V156.701Z" fill="#231F20"/>
<path d="M158.921 192.455H83.9655C83.8494 192.455 83.7382 192.409 83.6561 192.327C83.5741 192.245 83.528 192.134 83.528 192.018V156.701C83.528 156.585 83.5741 156.474 83.6561 156.392C83.7382 156.31 83.8494 156.264 83.9655 156.264H158.921C159.037 156.264 159.149 156.31 159.231 156.392C159.313 156.474 159.359 156.585 159.359 156.701V192.018C159.359 192.134 159.313 192.245 159.231 192.327C159.149 192.409 159.037 192.455 158.921 192.455ZM84.403 191.58H158.484V157.139H84.403V191.58Z" fill="#231F20"/>
<path d="M228.82 120.3H206.664C206.548 120.3 206.436 120.253 206.354 120.171C206.272 120.089 206.226 119.978 206.226 119.862V115.566C206.226 115.45 206.272 115.338 206.354 115.256C206.436 115.174 206.548 115.128 206.664 115.128H228.82C228.936 115.128 229.047 115.174 229.129 115.256C229.211 115.338 229.257 115.45 229.257 115.566V119.862C229.257 119.978 229.211 120.089 229.129 120.171C229.047 120.253 228.936 120.3 228.82 120.3ZM207.101 119.424H228.382V116.003H207.127L207.101 119.424Z" fill="#D1D3D4"/>
<path d="M225.083 146.096H210.391C210.282 146.096 210.177 146.054 210.097 145.98C210.017 145.905 209.969 145.802 209.963 145.693L208.256 119.888C208.251 119.766 208.295 119.646 208.379 119.556C208.419 119.513 208.468 119.479 208.522 119.457C208.577 119.434 208.635 119.423 208.694 119.424H226.79C226.848 119.423 226.907 119.434 226.961 119.457C227.015 119.479 227.064 119.513 227.105 119.556C227.188 119.646 227.232 119.766 227.227 119.888L225.477 145.693C225.471 145.797 225.428 145.894 225.355 145.968C225.283 146.042 225.186 146.087 225.083 146.096V146.096ZM210.803 145.221H224.681L226.317 120.3H209.166L210.803 145.221Z" fill="#D1D3D4"/>
<path d="M236.879 145.781H63.3583C61.4445 145.781 59.8931 147.332 59.8931 149.246V153.236C59.8931 155.15 61.4445 156.701 63.3583 156.701H236.879C238.793 156.701 240.344 155.15 240.344 153.236V149.246C240.344 147.332 238.793 145.781 236.879 145.781Z" fill="white"/>
<path d="M236.879 157.139H63.367C62.3311 157.139 61.3376 156.728 60.6043 155.996C59.871 155.265 59.4579 154.272 59.4556 153.236V149.246C59.4579 148.21 59.871 147.217 60.6043 146.486C61.3376 145.754 62.3311 145.343 63.367 145.343H236.879C237.914 145.343 238.906 145.754 239.638 146.486C240.37 147.218 240.781 148.211 240.781 149.246V153.236C240.781 154.271 240.37 155.264 239.638 155.996C238.906 156.728 237.914 157.139 236.879 157.139V157.139ZM63.367 146.218C62.5632 146.218 61.7922 146.537 61.223 147.104C60.6538 147.672 60.3329 148.442 60.3306 149.246V153.236C60.3329 154.04 60.6538 154.81 61.223 155.377C61.7922 155.945 62.5632 156.264 63.367 156.264H236.879C237.682 156.264 238.452 155.945 239.02 155.377C239.587 154.809 239.906 154.039 239.906 153.236V149.246C239.906 148.443 239.587 147.673 239.02 147.105C238.452 146.537 237.682 146.218 236.879 146.218H63.367Z" fill="#231F20"/>
<path d="M237.92 145.781H154.257C152.914 145.781 151.825 146.87 151.825 148.213V154.269C151.825 155.612 152.914 156.701 154.257 156.701H237.92C239.264 156.701 240.353 155.612 240.353 154.269V148.213C240.353 146.87 239.264 145.781 237.92 145.781Z" fill="white"/>
<path d="M237.92 157.139H154.249C153.487 157.139 152.757 156.836 152.219 156.298C151.681 155.76 151.379 155.03 151.379 154.269V148.205C151.379 147.828 151.453 147.455 151.597 147.108C151.742 146.76 151.953 146.444 152.22 146.178C152.486 145.912 152.803 145.702 153.151 145.558C153.499 145.415 153.872 145.342 154.249 145.343H237.92C238.679 145.343 239.407 145.645 239.943 146.181C240.48 146.718 240.781 147.446 240.781 148.205V154.269C240.781 155.028 240.48 155.757 239.944 156.295C239.407 156.833 238.68 157.136 237.92 157.139ZM154.249 146.218C153.721 146.218 153.215 146.427 152.841 146.799C152.467 147.172 152.256 147.677 152.254 148.205V154.269C152.256 154.797 152.467 155.303 152.84 155.677C153.214 156.05 153.72 156.261 154.249 156.264H237.92C238.448 156.261 238.953 156.05 239.325 155.676C239.697 155.302 239.906 154.796 239.906 154.269V148.205C239.906 147.678 239.697 147.173 239.325 146.8C238.952 146.427 238.447 146.218 237.92 146.218H154.249Z" fill="#231F20"/>
<path d="M161.625 100.06C161.625 100.06 164.644 130.984 157.959 135.184C151.755 139.06 144.877 137.932 141.053 137.932C139.636 137.863 138.235 138.251 137.055 139.039C135.875 139.826 134.979 140.972 134.499 142.307L133.484 145.667H181.261C184.851 143.306 187.875 140.18 190.117 136.514C193.319 130.861 191.342 101.512 191.342 101.512L161.625 100.06Z" fill="white"/>
<path d="M181.296 146.096H133.519C133.451 146.097 133.383 146.082 133.322 146.051C133.261 146.021 133.209 145.976 133.169 145.921C133.126 145.868 133.096 145.805 133.084 145.737C133.072 145.67 133.077 145.601 133.099 145.536L134.114 142.176C134.627 140.749 135.584 139.525 136.844 138.682C138.103 137.84 139.6 137.423 141.114 137.494C141.753 137.494 142.488 137.494 143.284 137.564C147.266 137.739 152.735 137.975 157.784 134.808C160.409 133.18 161.818 126.696 161.923 116.056C162.002 107.918 161.258 100.182 161.249 100.104C161.244 100.041 161.253 99.9788 161.274 99.92C161.295 99.8612 161.328 99.8075 161.372 99.7623C161.414 99.7151 161.467 99.678 161.526 99.6538C161.585 99.6295 161.649 99.6188 161.713 99.6223L191.377 101.075C191.483 101.081 191.584 101.124 191.661 101.198C191.738 101.272 191.786 101.371 191.797 101.477C191.875 102.685 193.748 131.019 190.519 136.715C188.244 140.45 185.169 143.633 181.515 146.034C181.449 146.074 181.373 146.095 181.296 146.096V146.096ZM134.105 145.221H181.165C184.652 142.899 187.591 139.844 189.775 136.269C192.68 131.15 191.184 105.398 190.965 101.906L162.142 100.506C162.518 104.68 164.67 131.5 158.221 135.508C152.971 138.815 147.091 138.562 143.214 138.395C142.436 138.395 141.718 138.325 141.088 138.325C139.768 138.261 138.461 138.621 137.36 139.351C136.258 140.081 135.418 141.145 134.963 142.386L134.105 145.221Z" fill="#231F20"/>
<path d="M189.084 129.479C189.084 137.118 186.791 139.402 183.738 139.402H171.75C170.927 139.4 170.123 139.651 169.447 140.121C168.771 140.59 168.256 141.255 167.969 142.027L166.639 145.641H185.111C189.845 145.641 193.206 138.474 193.354 130.835C193.503 123.196 193.354 101.495 193.354 101.495H189.233C189.233 101.495 189.084 121.848 189.084 129.479Z" fill="#231F20"/>
<path d="M185.111 146.096H166.639C166.569 146.095 166.501 146.078 166.438 146.046C166.376 146.014 166.322 145.968 166.281 145.912C166.242 145.853 166.217 145.786 166.208 145.717C166.199 145.647 166.206 145.576 166.228 145.509L167.558 141.896C167.873 141.037 168.444 140.296 169.193 139.771C169.943 139.247 170.835 138.965 171.75 138.964H183.738C187.036 138.964 188.647 135.866 188.647 129.479C188.647 121.936 188.795 101.705 188.795 101.477C188.8 101.364 188.848 101.256 188.929 101.176C189.01 101.096 189.119 101.051 189.233 101.049H193.354C193.411 101.047 193.468 101.058 193.521 101.079C193.574 101.1 193.622 101.131 193.663 101.171C193.704 101.211 193.736 101.259 193.758 101.311C193.78 101.364 193.792 101.42 193.792 101.477C193.792 101.696 193.949 123.283 193.792 130.835C193.634 138.387 190.353 146.096 185.111 146.096V146.096ZM167.269 145.221H185.111C189.259 145.221 192.759 138.772 192.917 130.844C193.057 123.905 192.917 105.056 192.917 101.967H189.662C189.662 104.96 189.513 122.575 189.513 129.496C189.513 136.418 187.623 139.857 183.729 139.857H171.741C171.004 139.856 170.286 140.083 169.683 140.505C169.08 140.928 168.622 141.527 168.372 142.219L167.269 145.221Z" fill="#231F20"/>
<path d="M124.576 15.846L117.348 98.5198C117.229 99.4409 117.307 100.377 117.577 101.266C117.847 102.154 118.303 102.975 118.915 103.675C119.526 104.374 120.279 104.935 121.124 105.321C121.969 105.707 122.886 105.909 123.815 105.914H222.388C224.362 105.842 226.241 105.05 227.67 103.688C229.1 102.326 229.982 100.487 230.15 98.5198L237.386 15.846C237.507 14.9246 237.43 13.9881 237.16 13.0988C236.891 12.2095 236.435 11.3878 235.823 10.6883C235.211 9.98881 234.458 9.4276 233.612 9.042C232.767 8.65639 231.849 8.45524 230.92 8.4519H132.338C130.364 8.52386 128.485 9.31561 127.055 10.6778C125.626 12.0399 124.744 13.8783 124.576 15.846V15.846Z" fill="#231F20"/>
<path d="M222.388 106.351H123.815C122.864 106.361 121.921 106.17 121.048 105.791C120.175 105.413 119.392 104.856 118.748 104.155C118.062 103.392 117.543 102.492 117.227 101.515C116.91 100.538 116.802 99.5059 116.911 98.4848L124.139 15.811C124.321 13.7355 125.254 11.798 126.764 10.3623C128.274 8.92666 130.256 8.09172 132.338 8.01438H230.92C231.874 8.0027 232.82 8.19226 233.696 8.5707C234.572 8.94914 235.358 9.50796 236.004 10.2107C236.689 10.9768 237.207 11.8778 237.523 12.8558C237.84 13.8339 237.948 14.8673 237.841 15.8897L230.605 98.5548C230.424 100.634 229.489 102.575 227.975 104.011C226.461 105.448 224.474 106.28 222.388 106.351V106.351ZM125.014 15.8897L117.777 98.5548C117.682 99.4559 117.776 100.367 118.055 101.229C118.334 102.091 118.791 102.885 119.396 103.56C119.953 104.165 120.629 104.648 121.382 104.978C122.135 105.308 122.949 105.478 123.771 105.476H222.388C224.254 105.404 226.029 104.653 227.379 103.364C228.729 102.074 229.562 100.336 229.721 98.476L236.949 15.8022C237.047 14.9017 236.954 13.9905 236.677 13.1281C236.4 12.2657 235.944 11.4714 235.339 10.797C234.777 10.1859 234.094 9.69958 233.333 9.36946C232.572 9.03934 231.749 8.87282 230.92 8.88067H132.338C130.473 8.95309 128.699 9.70475 127.35 10.9941C126.001 12.2834 125.17 14.0215 125.014 15.881V15.8897Z" fill="#231F20"/>
<path d="M124.252 15.5135L117.34 94.4509C117.227 95.3306 117.302 96.2242 117.561 97.0727C117.819 97.9211 118.255 98.705 118.839 99.3726C119.422 100.04 120.142 100.576 120.948 100.945C121.755 101.314 122.63 101.507 123.517 101.512H217.628C219.512 101.441 221.304 100.683 222.669 99.383C224.034 98.0827 224.877 96.3288 225.039 94.4509L231.961 15.5135C232.075 14.6335 232.001 13.7393 231.743 12.8902C231.485 12.0412 231.05 11.2567 230.465 10.5888C229.881 9.92098 229.161 9.38505 228.354 9.01662C227.547 8.64819 226.671 8.45569 225.783 8.4519H131.664C129.779 8.52002 127.984 9.27599 126.619 10.577C125.253 11.8781 124.411 13.6341 124.252 15.5135V15.5135Z" fill="white"/>
<path d="M217.628 101.95H123.517C122.607 101.957 121.705 101.773 120.87 101.41C120.035 101.046 119.285 100.512 118.67 99.8411C118.012 99.1091 117.517 98.2469 117.215 97.3106C116.914 96.3743 116.813 95.385 116.92 94.4071L123.815 15.5135C123.985 13.5206 124.881 11.6597 126.333 10.2838C127.785 8.90796 129.691 8.11285 131.69 8.04938H225.783C226.695 8.04218 227.598 8.22611 228.435 8.58933C229.271 8.95255 230.022 9.487 230.64 10.1582C231.296 10.8892 231.791 11.75 232.092 12.6846C232.394 13.6193 232.495 14.607 232.39 15.5835L225.503 94.4858C225.331 96.478 224.434 98.3378 222.983 99.7133C221.532 101.089 219.626 101.885 217.628 101.95V101.95ZM124.681 15.5135L117.777 94.4509C117.684 95.308 117.774 96.1751 118.039 96.9954C118.304 97.8157 118.74 98.5707 119.317 99.2111C119.849 99.7943 120.498 100.259 121.222 100.574C121.946 100.889 122.728 101.048 123.517 101.04H217.628C219.408 100.976 221.103 100.262 222.393 99.0335C223.682 97.8051 224.478 96.1469 224.628 94.3721L231.524 15.5135C231.616 14.6557 231.527 13.788 231.264 12.9666C231 12.1451 230.567 11.3881 229.992 10.7445C229.457 10.1635 228.806 9.70127 228.081 9.38775C227.356 9.07422 226.573 8.91638 225.783 8.92443H131.664C129.885 8.98837 128.192 9.70085 126.902 10.9275C125.612 12.1542 124.816 13.8103 124.664 15.5835L124.681 15.5135Z" fill="#231F20"/>
<path d="M118.503 81.194L117.34 94.4509C117.227 95.3306 117.302 96.2242 117.561 97.0727C117.819 97.9211 118.255 98.705 118.839 99.3726C119.422 100.04 120.142 100.576 120.948 100.945C121.755 101.314 122.63 101.507 123.517 101.512H217.628C219.512 101.441 221.304 100.683 222.669 99.383C224.034 98.0827 224.877 96.3288 225.039 94.4509L226.195 81.194H118.503Z" fill="white"/>
<path d="M217.628 101.95H123.517C122.607 101.957 121.705 101.773 120.87 101.41C120.035 101.046 119.285 100.512 118.67 99.8411C118.012 99.1091 117.517 98.2469 117.215 97.3106C116.914 96.3743 116.813 95.385 116.92 94.4071L118.066 81.1415C118.075 81.0316 118.125 80.9291 118.206 80.8545C118.287 80.7799 118.393 80.7386 118.503 80.739H226.212C226.273 80.7396 226.332 80.7523 226.388 80.7763C226.444 80.8004 226.494 80.8353 226.536 80.879C226.616 80.9706 226.657 81.09 226.65 81.2115L225.503 94.4858C225.331 96.478 224.434 98.3378 222.983 99.7133C221.532 101.089 219.626 101.885 217.628 101.95V101.95ZM118.906 81.6315L117.777 94.4858C117.684 95.343 117.774 96.2101 118.039 97.0304C118.304 97.8507 118.74 98.6057 119.317 99.2461C119.849 99.8293 120.498 100.294 121.222 100.609C121.946 100.924 122.728 101.083 123.517 101.075H217.628C219.408 101.011 221.103 100.297 222.393 99.0685C223.682 97.8401 224.478 96.1819 224.628 94.4071L225.74 81.6315H118.906Z" fill="#231F20"/>
<path d="M175.018 93.7217C176.468 91.5579 176.056 88.7394 174.097 87.4264C172.138 86.1134 169.374 86.8032 167.924 88.967C166.473 91.1308 166.886 93.9493 168.845 95.2623C170.804 96.5753 173.568 95.8855 175.018 93.7217Z" fill="white"/>
<path d="M171.067 96.3672C170.458 96.3714 169.854 96.2483 169.295 96.0057C168.736 95.7631 168.234 95.4063 167.821 94.9584C167.379 94.4671 167.045 93.8883 166.841 93.2597C166.638 92.631 166.569 91.9665 166.639 91.3094C166.756 89.9818 167.354 88.7426 168.321 87.8255C169.288 86.9083 170.557 86.3766 171.889 86.3305C172.499 86.3263 173.102 86.4494 173.661 86.692C174.22 86.9346 174.723 87.2913 175.136 87.7393C175.577 88.2311 175.91 88.81 176.113 89.4385C176.317 90.067 176.386 90.7312 176.317 91.3882C176.202 92.7166 175.605 93.9568 174.637 94.8743C173.67 95.7918 172.4 96.3229 171.067 96.3672V96.3672ZM171.872 87.2055C170.758 87.2505 169.7 87.7002 168.894 88.4702C168.089 89.2403 167.592 90.2779 167.497 91.3882C167.441 91.9252 167.497 92.468 167.663 92.9818C167.829 93.4956 168.1 93.9692 168.459 94.3721C168.794 94.7327 169.2 95.0188 169.653 95.2118C170.105 95.4048 170.593 95.5003 171.084 95.4921C172.2 95.4528 173.262 95.005 174.068 94.2338C174.875 93.4626 175.37 92.4219 175.46 91.3094C175.52 90.7743 175.466 90.2324 175.302 89.7195C175.138 89.2066 174.866 88.7345 174.506 88.3343C174.171 87.971 173.764 87.6826 173.31 87.488C172.856 87.2935 172.366 87.1972 171.872 87.2055V87.2055Z" fill="#231F20"/>
<path d="M103.094 141.808H175.53V145.781H103.094V141.808Z" fill="white"/>
<path d="M175.53 146.218H103.094C102.979 146.216 102.869 146.169 102.787 146.088C102.705 146.006 102.659 145.896 102.656 145.781V141.808C102.656 141.692 102.702 141.581 102.785 141.499C102.867 141.417 102.978 141.37 103.094 141.37H175.53C175.646 141.37 175.757 141.417 175.839 141.499C175.921 141.581 175.967 141.692 175.967 141.808V145.781C175.967 145.897 175.921 146.008 175.839 146.09C175.757 146.172 175.646 146.218 175.53 146.218ZM103.531 145.343H175.092V142.246H103.531V145.343Z" fill="#231F20"/>
<path d="M92.8909 160.98C92.8909 160.98 126.352 169.416 126.352 192.027H37.9209C37.9209 192.027 23.859 178.446 27.3329 157.585C62.9645 158.819 92.8909 160.98 92.8909 160.98Z" fill="white"/>
<path d="M126.361 192.455H37.9209C37.8641 192.457 37.8076 192.447 37.7549 192.426C37.7022 192.405 37.6544 192.373 37.6146 192.333C37.4746 192.202 23.4302 178.332 26.9041 157.515C26.9244 157.411 26.98 157.318 27.0614 157.251C27.1428 157.184 27.2449 157.148 27.3504 157.147C62.5795 158.364 92.6284 160.525 92.9259 160.543H93.0046C93.3371 160.621 126.799 169.293 126.799 192C126.801 192.059 126.791 192.118 126.771 192.173C126.75 192.228 126.718 192.279 126.677 192.321C126.636 192.364 126.587 192.397 126.533 192.42C126.478 192.444 126.42 192.455 126.361 192.455V192.455ZM38.1046 191.58H125.915C125.495 170.221 94.0722 161.741 92.8209 161.418C91.5696 161.321 62.1945 159.239 27.7004 158.04C24.699 177.177 36.7483 190.189 38.1046 191.58V191.58Z" fill="#231F20"/>
<path d="M138.419 122.706C138.419 122.706 149.445 117.141 152.534 117.141C155.623 117.141 165.327 119.888 166.359 122.706C167.392 125.524 168.713 130.082 167.392 130.231C166.071 130.38 164.303 125.375 164.303 125.856C164.303 126.337 160.479 130.564 156.209 129.242L145 132.288L138.384 123.905" fill="white"/>
<path d="M145 132.769C144.934 132.769 144.869 132.754 144.809 132.726C144.75 132.697 144.699 132.655 144.658 132.603L138.034 124.22C137.964 124.128 137.932 124.012 137.947 123.897C137.962 123.782 138.021 123.678 138.113 123.607C138.157 123.571 138.209 123.543 138.264 123.527C138.319 123.511 138.377 123.506 138.434 123.512C138.491 123.519 138.546 123.537 138.597 123.565C138.647 123.593 138.69 123.632 138.725 123.677L145.166 131.833L156.06 128.822C156.14 128.796 156.225 128.796 156.305 128.822C160.05 129.986 163.533 126.407 163.83 125.786C163.842 125.694 163.882 125.607 163.945 125.539C164.008 125.47 164.09 125.422 164.18 125.401C164.557 125.314 164.653 125.532 165.055 126.337C166.482 129.435 167.112 129.837 167.339 129.837C167.786 129.164 167.182 126.259 165.948 122.898C165.073 120.44 155.868 117.648 152.534 117.648C149.585 117.648 138.725 123.108 138.612 123.161C138.51 123.203 138.395 123.206 138.292 123.167C138.188 123.129 138.103 123.053 138.053 122.954C138.003 122.856 137.993 122.742 138.023 122.636C138.054 122.53 138.123 122.439 138.218 122.382C138.673 122.155 149.375 116.773 152.534 116.773C155.412 116.773 165.615 119.468 166.771 122.627C167.453 124.491 168.949 128.971 168.136 130.284C168.065 130.41 167.964 130.517 167.842 130.595C167.72 130.673 167.58 130.719 167.436 130.73C166.28 130.861 165.23 128.831 164.268 126.74C163.783 127.289 163.24 127.785 162.649 128.219C161.424 129.094 158.956 130.511 156.209 129.724L145.148 132.778L145 132.769Z" fill="#231F20"/>
<path d="M27.3329 157.585C27.3329 157.585 18.5125 85.3942 28.9867 70.641C39.461 55.8878 65.1784 53.499 77.1139 63.0194C89.0495 72.5398 94.8597 160.009 94.8597 160.009C94.8597 160.009 62.8245 169.468 27.3329 157.585V157.585Z" fill="#68E1FD"/>
<path d="M77.0789 63.0107C77.0789 63.0107 84.7005 67.6221 90.4145 78.1751C96.1285 88.7281 108.117 127.799 108.117 127.799L139.889 120.973L152.245 132.655C152.245 132.655 127.56 144.906 112.798 151.582C98.0361 158.259 60.3481 116.826 60.3481 116.826L77.0789 63.0107Z" fill="#68E1FD"/>
<path d="M98.0361 149.22C97.9534 149.22 97.8719 149.199 97.7999 149.158C97.5461 149.001 72.3712 132.891 63.4983 90.9594C63.4862 90.902 63.4856 90.8427 63.4965 90.785C63.5073 90.7273 63.5294 90.6723 63.5615 90.6231C63.5936 90.574 63.6351 90.5316 63.6835 90.4985C63.732 90.4654 63.7865 90.4421 63.844 90.43C63.9014 90.418 63.9607 90.4173 64.0184 90.4282C64.0761 90.439 64.1311 90.4611 64.1802 90.4932C64.2294 90.5253 64.2717 90.5668 64.3049 90.6152C64.338 90.6637 64.3613 90.7182 64.3734 90.7757C68.9673 112.485 77.9452 127.002 84.6655 135.403C91.9546 144.451 98.2287 148.415 98.2899 148.458C98.3686 148.509 98.4289 148.584 98.462 148.671C98.4951 148.759 98.4992 148.855 98.4737 148.945C98.4482 149.035 98.3946 149.115 98.3205 149.172C98.2465 149.229 98.156 149.261 98.0624 149.263L98.0361 149.22Z" fill="#231F20"/>
<path d="M81.8916 32.1392C80.9034 32.1392 79.9374 31.8462 79.1157 31.2972C78.2941 30.7482 77.6537 29.9678 77.2755 29.0548C76.8973 28.1418 76.7984 27.1372 76.9911 26.168C77.1839 25.1988 77.6598 24.3085 78.3586 23.6097C79.0574 22.9109 79.9476 22.4351 80.9169 22.2423C81.8861 22.0495 82.8907 22.1484 83.8037 22.5266C84.7167 22.9048 85.497 23.5452 86.046 24.3669C86.5951 25.1885 86.8881 26.1545 86.8881 27.1428C86.8858 28.4672 86.3586 29.7367 85.4221 30.6732C84.4856 31.6098 83.2161 32.1369 81.8916 32.1392V32.1392ZM81.8916 23.0213C81.0765 23.0213 80.2796 23.263 79.6019 23.7159C78.9241 24.1688 78.3959 24.8125 78.0839 25.5656C77.772 26.3186 77.6904 27.1473 77.8494 27.9468C78.0084 28.7463 78.4009 29.4807 78.9773 30.0571C79.5537 30.6335 80.2881 31.026 81.0876 31.185C81.8871 31.344 82.7157 31.2624 83.4688 30.9505C84.2219 30.6385 84.8656 30.1103 85.3185 29.4325C85.7713 28.7547 86.0131 27.9579 86.0131 27.1428C86.0038 26.055 85.5658 25.0147 84.7942 24.2479C84.0225 23.4812 82.9795 23.0498 81.8916 23.0476V23.0213Z" fill="#231F20"/>
<path d="M79.704 30.7129C79.704 30.7129 85.0155 39.4633 83.7817 41.2134C82.5479 42.9635 78.7152 41.6159 78.7152 41.6159" fill="white"/>
<path d="M81.4804 42.4997C80.4901 42.4754 79.5085 42.3074 78.5665 42.0009C78.4574 41.9614 78.3685 41.8803 78.3193 41.7753C78.2701 41.6703 78.2646 41.55 78.304 41.4409C78.3418 41.3323 78.4208 41.243 78.524 41.1922C78.6272 41.1415 78.7462 41.1334 78.8553 41.1697C79.8353 41.5109 82.5654 42.1234 83.423 40.9246C84.158 39.9008 81.4716 34.4756 79.3278 30.9404C79.2674 30.8406 79.2492 30.721 79.2771 30.6077C79.305 30.4945 79.3767 30.397 79.4765 30.3367C79.5763 30.2763 79.696 30.2581 79.8092 30.286C79.9225 30.3139 80.02 30.3856 80.0803 30.4854C80.9553 31.9905 85.4706 39.5771 84.1317 41.4409C83.8067 41.8165 83.3962 42.1087 82.9349 42.293C82.4736 42.4772 81.9748 42.5481 81.4804 42.4997V42.4997Z" fill="#231F20"/>
<path d="M78.934 19.3987C82.4341 22.47 81.1303 28.6128 80.9466 32.6468C80.6841 38.3054 80.2903 43.9581 79.7653 49.605C79.4415 53.184 70.1398 52.9039 68.5385 51.7664L70.5073 60.7355L50.2064 57.7604L51.4577 46.0699C51.4577 46.0699 50.1539 29.7766 54.0828 22.6101C58.0118 15.4435 65.7121 16.091 65.7121 16.091C65.7121 16.091 75.5388 16.3885 78.934 19.3987V19.3987Z" fill="white"/>
<path d="M70.5074 61.1731H70.4461L50.1452 58.1979C50.033 58.1806 49.9317 58.1212 49.8618 58.0318C49.7919 57.9424 49.7587 57.8297 49.7689 57.7167L51.0202 46.0261C50.9677 45.4311 49.7602 29.6016 53.6891 22.4C57.688 15.0497 65.6596 15.6535 65.7471 15.6622C66.1322 15.6622 75.7576 16.0122 79.2228 19.0749C82.2767 21.77 81.8479 26.6002 81.5416 30.4504C81.4716 31.2292 81.4104 31.9642 81.3841 32.638C81.1216 38.2645 80.7278 44.0135 80.2466 49.64C80.1657 50.1914 79.933 50.7093 79.5744 51.1359C79.2159 51.5624 78.7457 51.8807 78.2165 52.0552C75.7138 53.2015 71.2861 53.1314 69.1948 52.5014L70.9449 60.6305C70.9594 60.6947 70.9592 60.7614 70.9443 60.8255C70.9295 60.8896 70.9004 60.9495 70.8592 61.0008C70.818 61.0521 70.7657 61.0934 70.7063 61.1218C70.6469 61.1501 70.5819 61.1646 70.5161 61.1643L70.5074 61.1731ZM50.6877 57.3929L69.9386 60.2105L68.101 51.8626C68.0826 51.7771 68.0903 51.6881 68.1231 51.6069C68.1558 51.5258 68.2122 51.4564 68.2848 51.4076C68.358 51.3568 68.445 51.3296 68.5341 51.3296C68.6233 51.3296 68.7103 51.3568 68.7835 51.4076C69.8336 52.1427 75.0663 52.5102 77.7964 51.2589C78.7415 50.8213 79.2578 50.2526 79.3278 49.5088C79.844 43.891 80.2028 38.1945 80.5003 32.568C80.5003 31.8855 80.5966 31.1417 80.6578 30.3542C80.9728 26.6702 81.3579 22.0763 78.6365 19.6787C75.3988 16.8173 65.7821 16.4848 65.6859 16.476C65.5896 16.4673 58.1693 15.9335 54.4504 22.7588C50.6439 29.7591 51.8253 45.8161 51.8865 45.9824L50.6877 57.3929Z" fill="#231F20"/>
<path d="M46.225 60.5168L48.1326 54.3215L73.045 56.7366L74.48 62.4156C74.48 62.4156 61.4594 68.6109 46.225 60.5168Z" fill="white"/>
<path d="M62.5533 65.0932C56.7792 65.0816 51.0976 63.6417 46.015 60.9018C45.9254 60.8536 45.8555 60.7757 45.8172 60.6814C45.7788 60.5872 45.7745 60.4826 45.805 60.3855L47.7126 54.199C47.7422 54.1037 47.8034 54.0214 47.8861 53.9657C47.9689 53.91 48.0682 53.8843 48.1676 53.8927L73.0888 56.2991C73.1796 56.3075 73.2655 56.344 73.3346 56.4036C73.4036 56.4633 73.4523 56.543 73.4738 56.6316L74.9001 62.3106C74.9245 62.4095 74.9144 62.5137 74.8714 62.606C74.8285 62.6984 74.7552 62.7732 74.6638 62.8181C70.8185 64.3746 66.7013 65.1481 62.5533 65.0932V65.0932ZM46.75 60.298C50.8954 62.5183 55.4651 63.8327 60.1567 64.154C64.8482 64.4753 69.5544 63.7963 73.9638 62.1619L72.7037 57.1391L48.4389 54.794L46.75 60.298Z" fill="#231F20"/>
<path d="M58.3705 47.5399C58.3705 57.1654 68.0485 76.6 59.7619 84.2916C51.9652 91.4757 38.6034 93.357 28.4617 92.2545C13.7172 90.6619 6.02565 80.4415 12.0634 66.1083C15.0123 59.108 20.21 53.3415 24.5502 47.1112C28.3802 41.6163 31.5907 35.7148 34.1232 29.5141C36.2845 24.2639 37.8946 18.1386 40.791 13.2559C47.24 2.40537 58.6068 -1.83857 70.5424 1.66159C75.6701 3.15791 85.5405 9.3357 83.1167 16.021C82.5217 17.6661 80.4916 20.1162 78.9165 19.4249C78.4527 22.6013 76.4139 24.1239 73.9288 26.154C71.4436 28.1841 68.5648 29.6541 65.8871 31.4042C63.9979 32.5311 62.3479 34.0176 61.0307 35.7794C59.4468 38.107 58.8868 40.9684 58.5893 43.7685C58.4465 45.0206 58.3735 46.2797 58.3705 47.5399V47.5399Z" fill="white"/>
<path d="M33.9132 92.937C32.0863 92.9385 30.2607 92.8421 28.4442 92.6483C20.6388 91.7732 14.6973 88.5531 11.7222 83.4866C8.88703 78.6739 8.87828 72.5923 11.7222 65.8983C13.8835 60.7618 17.2787 56.2728 20.5688 51.8451C21.8026 50.2088 23.0714 48.5112 24.2527 46.8137C28.0496 41.3459 31.2335 35.477 33.7469 29.3129C34.4557 27.5628 35.0945 25.8127 35.777 23.8876C36.9827 20.1165 38.5444 16.4687 40.441 12.9934C46.89 2.14286 58.4843 -2.37234 70.7086 1.20657C74.4625 2.30912 80.7978 5.89679 83.0992 10.4382C83.5774 11.2999 83.8669 12.2535 83.9484 13.2357C84.0299 14.2178 83.9015 15.206 83.5717 16.1348C83.0196 17.6673 81.9276 18.946 80.5003 19.7312C80.1294 19.9054 79.7179 19.975 79.3103 19.9324C78.7152 22.8201 76.7901 24.3864 74.585 26.189L74.2525 26.4515C72.5587 27.7697 70.7751 28.9685 68.9148 30.0391C68.0397 30.5904 67.0684 31.1504 66.1672 31.7892C64.3296 32.8958 62.7248 34.3491 61.4419 36.0682C59.8406 38.422 59.3418 41.3184 59.0618 43.856C58.9339 45.0915 58.8696 46.3328 58.8693 47.5749C58.8693 50.6463 59.8931 54.8115 60.9782 59.2217C63.2883 68.6197 65.9046 79.2689 60.1031 84.5979C53.3303 90.7669 42.7248 92.937 33.9132 92.937V92.937ZM62.5445 0.882803C53.7941 0.882803 45.9887 5.33676 41.1673 13.4484C39.2987 16.8764 37.7604 20.4745 36.5733 24.1939C35.9258 26.014 35.252 27.904 34.5345 29.6541C31.9791 35.8734 28.7515 41.7947 24.909 47.3124C23.719 49.0625 22.4414 50.7251 21.2076 52.3702C17.9524 56.7454 14.5835 61.1993 12.4572 66.2396C9.75332 72.6623 9.74457 78.4901 12.4572 83.0403C15.2923 87.8618 20.9976 90.9682 28.5229 91.7907C37.7896 92.7883 51.449 91.3357 59.4818 83.9154C64.8896 78.9276 62.3345 68.5497 60.0856 59.4142C58.9918 54.9515 57.9593 50.7338 57.9505 47.5574C57.9493 46.283 58.0165 45.0095 58.1518 43.7423C58.4405 41.1172 58.9568 38.072 60.6719 35.5606C62.0221 33.7437 63.7132 32.2071 65.6509 31.0367C66.5259 30.4417 67.506 29.8641 68.416 29.2866C70.2435 28.2404 71.9977 27.071 73.6662 25.7864L73.9988 25.5152C76.2739 23.6601 78.0765 22.1988 78.4965 19.3374C78.5047 19.27 78.5288 19.2054 78.5668 19.1491C78.6049 19.0929 78.6557 19.0464 78.7152 19.0136C78.7755 18.9855 78.8412 18.9709 78.9077 18.9709C78.9743 18.9709 79.04 18.9855 79.1003 19.0136C79.2653 19.0761 79.4414 19.1036 79.6176 19.0946C79.7938 19.0855 79.9663 19.0401 80.124 18.9611C81.3323 18.2649 82.2605 17.1696 82.7492 15.8635C83.0342 15.0457 83.1426 14.1767 83.0672 13.314C82.9918 12.4512 82.7343 11.6142 82.3116 10.8583C80.1328 6.55306 74.0688 3.13166 70.4636 2.10786C67.8963 1.32196 65.2293 0.90938 62.5445 0.882803V0.882803Z" fill="#231F20"/>
<path d="M79.7915 45.3786C79.7915 45.3786 75.3026 47.9075 73.1412 43.2785Z" fill="white"/>
<path d="M77.0964 46.5074C76.6153 46.5099 76.1368 46.436 75.6789 46.2886C75.0159 46.0537 74.4108 45.6801 73.9038 45.1927C73.3968 44.7053 72.9996 44.1154 72.7387 43.4623C72.6914 43.3566 72.6878 43.2366 72.7288 43.1283C72.7698 43.0201 72.852 42.9325 72.9575 42.8847C73.062 42.8368 73.1812 42.832 73.2893 42.8713C73.3974 42.9106 73.4857 42.9909 73.535 43.0947C73.7459 43.6365 74.0694 44.1273 74.4843 44.5346C74.8991 44.9419 75.3958 45.2565 75.9414 45.4573C77.1707 45.7513 78.4651 45.5864 79.5815 44.9936C79.6317 44.9616 79.6878 44.9402 79.7465 44.9306C79.8052 44.9211 79.8653 44.9236 79.9229 44.938C79.9806 44.9524 80.0348 44.9785 80.0821 45.0145C80.1294 45.0506 80.1688 45.0959 80.198 45.1478C80.2272 45.1996 80.2455 45.2568 80.2518 45.3159C80.2582 45.3751 80.2524 45.4349 80.2348 45.4917C80.2172 45.5485 80.1883 45.6012 80.1497 45.6464C80.1111 45.6917 80.0636 45.7286 80.0103 45.7549C79.1124 46.2332 78.1136 46.4912 77.0964 46.5074V46.5074Z" fill="#231F20"/>
<path d="M56.3667 33.6881H56.2442C56.1891 33.672 56.1376 33.6452 56.0928 33.6092C56.048 33.5732 56.0107 33.5288 55.9831 33.4784C55.9273 33.3767 55.9142 33.2569 55.9467 33.1455C56.743 30.3542 57.2943 30.3104 57.5305 30.2929C57.9768 30.2929 76.6064 27.9653 86.4068 26.749C86.4639 26.7417 86.5218 26.7459 86.5772 26.7615C86.6325 26.777 86.6842 26.8036 86.7291 26.8395C86.774 26.8754 86.8112 26.92 86.8385 26.9706C86.8659 27.0212 86.8827 27.0768 86.8881 27.134C86.903 27.2489 86.8718 27.3649 86.8013 27.4568C86.7307 27.5486 86.6267 27.6088 86.5119 27.624C85.3831 27.764 59.4644 30.9667 57.688 31.1242C57.2975 31.8253 57.0031 32.5758 56.813 33.3555C56.7903 33.455 56.7329 33.5431 56.6511 33.604C56.5693 33.665 56.4685 33.6948 56.3667 33.6881V33.6881Z" fill="#231F20"/>
<path d="M68.7048 33.8893C68.599 32.4668 68.1024 31.1011 67.2697 29.9429C66.7509 28.975 66.0902 28.0902 65.3096 27.3178C64.9167 26.9316 64.4427 26.6378 63.922 26.4577C63.4013 26.2775 62.8471 26.2157 62.2995 26.2765C61.8203 26.3754 61.3677 26.5757 60.9723 26.864C60.5769 27.1523 60.2477 27.5218 60.0069 27.9478C59.532 28.8001 59.254 29.7479 59.1931 30.7217C59.0088 32.8563 59.3916 35.0017 60.3027 36.9409C61.2139 38.8801 62.6212 40.5441 64.3821 41.7647L64.0846 41.4147" fill="white"/>
<path d="M64.382 42.1672C64.2944 42.1656 64.2092 42.1382 64.137 42.0884C62.3269 40.8253 60.8781 39.1113 59.9342 37.116C58.9903 35.1207 58.584 32.9135 58.7555 30.7129C58.8136 29.6697 59.1131 28.6542 59.6306 27.7465C59.9049 27.2608 60.2819 26.8408 60.7353 26.5159C61.1887 26.1909 61.7076 25.9689 62.2557 25.8652C62.8693 25.7916 63.4916 25.8572 64.0764 26.0572C64.6611 26.2571 65.1933 26.5863 65.6334 27.0203C66.446 27.8328 67.1332 28.7617 67.6722 29.7766C68.5477 31.0026 69.0657 32.4476 69.1685 33.9506C69.1698 34.0087 69.1591 34.0665 69.1369 34.1203C69.1147 34.1741 69.0816 34.2227 69.0396 34.263C68.9977 34.3033 68.9478 34.3345 68.8931 34.3545C68.8385 34.3745 68.7803 34.383 68.7223 34.3793C68.6644 34.3794 68.6072 34.3677 68.554 34.3451C68.5008 34.3225 68.4528 34.2893 68.4127 34.2476C68.3727 34.2059 68.3414 34.1566 68.321 34.1025C68.3005 34.0485 68.2911 33.9908 68.2935 33.9331C68.1742 32.596 67.6999 31.3152 66.9197 30.2229C66.4257 29.2856 65.7946 28.4274 65.0471 27.6765C64.7066 27.3348 64.2945 27.0728 63.8406 26.9094C63.3867 26.746 62.9022 26.6852 62.422 26.7315C62.0061 26.8231 61.6143 27.0013 61.272 27.2546C60.9297 27.508 60.6447 27.8306 60.4356 28.2016C59.9852 29.0067 59.7277 29.9052 59.6831 30.8267C59.5285 32.754 59.8507 34.6898 60.6214 36.4631C61.392 38.2364 62.5874 39.7927 64.102 40.9946C64.1705 40.9907 64.2389 41.002 64.3025 41.0278C64.366 41.0535 64.4231 41.093 64.4696 41.1434L64.7671 41.5022C64.8366 41.5806 64.875 41.6818 64.875 41.7866C64.875 41.8913 64.8366 41.9925 64.7671 42.0709C64.7143 42.115 64.6523 42.1466 64.5856 42.1633C64.5189 42.1799 64.4493 42.1813 64.382 42.1672V42.1672Z" fill="#231F20"/>
<path d="M78.2358 28.2742C78.6755 28.2672 79.0177 27.3529 79.0001 26.2318C78.9825 25.1108 78.6117 24.2076 78.172 24.2145C77.7323 24.2214 77.3901 25.1358 77.4077 26.2568C77.4253 27.3779 77.796 28.2811 78.2358 28.2742Z" fill="#231F20"/>
<path d="M81.9967 172.522C67.8648 168.637 62.4045 157.471 61.1182 143.759C59.9894 131.763 63.1308 113.509 54.3016 103.858C47.5901 96.5247 33.8345 94.8184 24.4453 95.1071C8.99207 95.6321 2.79678 108.583 1.33546 122.295C-0.056543 136.063 0.154883 149.947 1.96549 163.667C3.04179 172.207 3.26055 191.09 14.7061 192.875C40.4235 196.874 73.6663 195.5 99.5062 194.835C102.823 194.757 106.314 194.634 109.132 192.972C111.346 191.677 112.501 189.673 111.433 187.205C110.742 185.831 109.745 184.634 108.519 183.705C101.974 178.192 93.5209 175.62 85.3043 173.388L81.9967 172.522Z" fill="#231F20"/>
<path d="M60.0244 196.069C44.2737 196.069 28.3217 195.465 14.6448 193.339C4.31933 191.729 2.87552 177.107 1.93047 167.438C1.79922 166.082 1.67671 164.813 1.5367 163.763C-0.27389 150.002 -0.485305 136.078 0.906678 122.268C1.98298 112.232 6.46318 95.3084 24.4453 94.6959C44.3087 94.0221 52.5778 101.302 54.6341 103.551C61.2582 110.797 61.2582 122.732 61.2669 133.303C61.2669 137.065 61.2669 140.618 61.5645 143.751C63.0345 159.44 69.7636 168.724 82.1191 172.128L84.1842 172.688L85.4443 173.029C94.0197 175.348 102.263 177.895 108.825 183.434C110.104 184.405 111.143 185.656 111.862 187.091C112.929 189.559 112.028 191.86 109.377 193.409C106.367 195.159 102.578 195.264 99.5237 195.334L91.4908 195.544C81.6991 195.772 70.9274 196.069 60.0244 196.069V196.069ZM26.6329 95.5446C25.8978 95.5446 25.1803 95.5446 24.4715 95.5446C7.15446 96.1309 2.82302 112.582 1.78172 122.338C0.381845 136.085 0.578579 149.948 2.36799 163.649C2.508 164.734 2.63051 165.985 2.77051 167.35C3.64555 176.757 5.08937 190.977 14.7498 192.473C37.8246 196.069 67.5497 195.282 91.4296 194.643L99.4712 194.433C102.569 194.363 106.086 194.275 108.904 192.63C110.208 191.869 112.212 190.171 111.022 187.38C110.358 186.07 109.403 184.93 108.23 184.046C101.799 178.621 93.6609 176.11 85.1818 173.808L83.9217 173.476L81.8566 172.916C69.0985 169.416 62.1682 159.869 60.6544 143.768C60.3569 140.592 60.3569 137.022 60.3569 133.268C60.3569 122.89 60.3569 111.138 53.9516 104.146C48.1501 97.7672 36.4158 95.5446 26.6329 95.5446V95.5446Z" fill="#231F20"/>
<path d="M159.035 156.701H233.991V192.027H159.035V156.701Z" fill="white"/>
<path d="M234 192.455H159C158.884 192.455 158.773 192.409 158.691 192.327C158.609 192.245 158.563 192.134 158.563 192.018V156.701C158.563 156.585 158.609 156.474 158.691 156.392C158.773 156.31 158.884 156.264 159 156.264H233.965C234.081 156.264 234.192 156.31 234.274 156.392C234.356 156.474 234.402 156.585 234.402 156.701V192.018C234.403 192.128 234.361 192.234 234.287 192.315C234.212 192.397 234.11 192.447 234 192.455V192.455ZM159.473 191.58H233.562V157.139H159.473V191.58Z" fill="#231F20"/>
<path d="M150.119 156.701H159.035V192.027H150.119V156.701Z" fill="white"/>
<path d="M159 192.455H150.119C150.003 192.455 149.891 192.409 149.809 192.327C149.727 192.245 149.681 192.134 149.681 192.018V156.701C149.681 156.585 149.727 156.474 149.809 156.392C149.891 156.31 150.003 156.264 150.119 156.264H159C159.116 156.264 159.228 156.31 159.31 156.392C159.392 156.474 159.438 156.585 159.438 156.701V192.018C159.438 192.134 159.392 192.245 159.31 192.327C159.228 192.409 159.116 192.455 159 192.455ZM150.521 191.58H158.563V157.139H150.521V191.58Z" fill="#231F20"/>
<path d="M146.198 43.9348H134.49L135.26 32.2267H146.968L146.198 43.9348Z" fill="white"/>
<path d="M146.198 44.3898H134.499C134.438 44.3892 134.379 44.3765 134.323 44.3524C134.267 44.3284 134.217 44.2935 134.175 44.2498C134.136 44.206 134.106 44.1548 134.086 44.0993C134.067 44.0437 134.058 43.9848 134.062 43.926L134.832 32.2092C134.84 32.0994 134.89 31.9969 134.971 31.9223C135.053 31.8476 135.159 31.8064 135.269 31.8067H146.977C147.037 31.8057 147.097 31.8168 147.152 31.8393C147.208 31.8619 147.259 31.8954 147.301 31.938C147.381 32.0296 147.422 32.149 147.415 32.2705L146.645 43.9785C146.636 44.0907 146.585 44.1954 146.502 44.2717C146.419 44.348 146.311 44.3901 146.198 44.3898V44.3898ZM134.954 43.5148H145.787L146.505 32.6818H135.672L134.954 43.5148Z" fill="#D1D3D4"/>
<path d="M165.327 43.9348H153.619L155.045 22.2688H166.753L165.327 43.9348Z" fill="white"/>
<path d="M165.327 44.3898H153.619C153.559 44.3887 153.501 44.3757 153.446 44.3517C153.392 44.3277 153.343 44.293 153.302 44.2499C153.262 44.2067 153.23 44.1558 153.209 44.1002C153.188 44.0446 153.179 43.9854 153.181 43.926L154.625 22.2425C154.634 22.1318 154.683 22.0284 154.764 21.9523C154.845 21.8763 154.951 21.8331 155.062 21.8313H166.771C166.831 21.8311 166.891 21.8434 166.946 21.8676C167.002 21.8917 167.052 21.9271 167.093 21.9715C167.134 22.0159 167.166 22.0684 167.185 22.1256C167.205 22.1828 167.213 22.2435 167.208 22.3038L165.782 43.961C165.781 44.0193 165.768 44.0767 165.744 44.1299C165.721 44.1831 165.687 44.2311 165.644 44.2711C165.602 44.311 165.552 44.3421 165.497 44.3625C165.443 44.3828 165.385 44.3921 165.327 44.3898V44.3898ZM154.091 43.5148H164.924L166.289 22.7238H155.5L154.091 43.5148Z" fill="#D1D3D4"/>
<path d="M184.464 43.9348H172.756L174.742 13.6846H186.45L184.464 43.9348Z" fill="#68E1FD"/>
<path d="M209.542 23.5813H193.634C193.286 23.5813 192.952 23.4431 192.706 23.1969C192.46 22.9508 192.322 22.6169 192.322 22.2688C192.322 21.9207 192.46 21.5868 192.706 21.3407C192.952 21.0945 193.286 20.9562 193.634 20.9562H209.542C209.891 20.9562 210.224 21.0945 210.471 21.3407C210.717 21.5868 210.855 21.9207 210.855 22.2688C210.855 22.6169 210.717 22.9508 210.471 23.1969C210.224 23.4431 209.891 23.5813 209.542 23.5813Z" fill="#D1D3D4"/>
<path d="M209.105 30.1266H193.206C192.857 30.1266 192.524 29.9884 192.277 29.7422C192.031 29.4961 191.893 29.1622 191.893 28.8141C191.893 28.466 192.031 28.1321 192.277 27.886C192.524 27.6398 192.857 27.5015 193.206 27.5015H209.105C209.453 27.5015 209.787 27.6398 210.033 27.886C210.279 28.1321 210.418 28.466 210.418 28.8141C210.418 29.1622 210.279 29.4961 210.033 29.7422C209.787 29.9884 209.453 30.1266 209.105 30.1266V30.1266Z" fill="#D1D3D4"/>
<path d="M204.572 36.6632H192.768C192.42 36.6632 192.086 36.5249 191.84 36.2788C191.594 36.0326 191.455 35.6987 191.455 35.3506C191.455 35.0025 191.594 34.6687 191.84 34.4225C192.086 34.1764 192.42 34.0381 192.768 34.0381H204.572C204.92 34.0381 205.254 34.1764 205.5 34.4225C205.747 34.6687 205.885 35.0025 205.885 35.3506C205.885 35.6987 205.747 36.0326 205.5 36.2788C205.254 36.5249 204.92 36.6632 204.572 36.6632Z" fill="#D1D3D4"/>
<path d="M143.249 60.2805H133.44C133.381 60.2808 133.322 60.2685 133.268 60.2443C133.213 60.2202 133.165 60.1848 133.125 60.1405C133.082 60.097 133.049 60.0449 133.028 59.9875C133.007 59.9302 132.998 59.869 133.003 59.808L133.519 52.0639C133.524 51.9532 133.571 51.8486 133.651 51.772C133.731 51.6953 133.837 51.6525 133.948 51.6526H143.722C143.782 51.6524 143.842 51.6648 143.898 51.6889C143.953 51.7131 144.003 51.7485 144.044 51.7929C144.086 51.8373 144.117 51.8898 144.137 51.947C144.157 52.0041 144.164 52.0648 144.159 52.1252L143.652 59.8693C143.644 59.9743 143.6 60.0732 143.526 60.1484C143.452 60.2237 143.354 60.2705 143.249 60.2805V60.2805ZM133.948 59.4055H142.838L143.293 52.5277H134.359L133.948 59.4055Z" fill="#D1D3D4"/>
<path d="M183.843 54.6365H153.006C152.658 54.6365 152.324 54.4982 152.078 54.2521C151.832 54.0059 151.694 53.6721 151.694 53.324C151.694 52.9758 151.832 52.642 152.078 52.3958C152.324 52.1497 152.658 52.0114 153.006 52.0114H183.843C184.191 52.0114 184.525 52.1497 184.771 52.3958C185.017 52.642 185.155 52.9758 185.155 53.324C185.155 53.6721 185.017 54.0059 184.771 54.2521C184.525 54.4982 184.191 54.6365 183.843 54.6365Z" fill="#D1D3D4"/>
<path d="M177.087 59.0642H152.709C152.361 59.0642 152.027 58.9259 151.781 58.6798C151.534 58.4336 151.396 58.0998 151.396 57.7517C151.396 57.4035 151.534 57.0697 151.781 56.8235C152.027 56.5774 152.361 56.4391 152.709 56.4391H177.087C177.435 56.4391 177.769 56.5774 178.015 56.8235C178.262 57.0697 178.4 57.4035 178.4 57.7517C178.4 58.0998 178.262 58.4336 178.015 58.6798C177.769 58.9259 177.435 59.0642 177.087 59.0642V59.0642Z" fill="#D1D3D4"/>
<path d="M137.579 58.5742C137.477 58.5828 137.375 58.5828 137.273 58.5742C137.08 58.5246 136.901 58.4319 136.75 58.3031C136.598 58.1742 136.478 58.0126 136.398 57.8304L135.593 56.0803C135.515 55.9226 135.47 55.7508 135.459 55.5751C135.449 55.3994 135.474 55.2235 135.533 55.0578C135.593 54.8921 135.684 54.7399 135.804 54.6104C135.923 54.4809 136.067 54.3767 136.227 54.3039C136.387 54.2312 136.56 54.1913 136.736 54.1869C136.912 54.1824 137.087 54.2133 137.251 54.2778C137.414 54.3423 137.564 54.439 137.689 54.5623C137.815 54.6855 137.914 54.8328 137.982 54.9953L138.087 55.2228L140.073 53.5952C140.343 53.3747 140.69 53.2707 141.037 53.306C141.384 53.3413 141.703 53.513 141.924 53.7834C142.144 54.0537 142.248 54.4006 142.213 54.7477C142.178 55.0947 142.006 55.4136 141.736 55.6341L138.419 58.3379C138.175 58.5108 137.878 58.5943 137.579 58.5742V58.5742Z" fill="#68E1FD"/>
<path d="M142.322 73.7999H132.548C132.488 73.8002 132.43 73.7878 132.375 73.7637C132.321 73.7396 132.272 73.7042 132.233 73.6599C132.151 73.5723 132.107 73.456 132.11 73.3361L132.627 65.592C132.633 65.4806 132.682 65.3759 132.764 65.2995C132.845 65.223 132.952 65.1806 133.064 65.1808H142.838C142.898 65.1805 142.956 65.1928 143.011 65.2169C143.065 65.2411 143.114 65.2765 143.153 65.3208C143.195 65.3636 143.227 65.4143 143.248 65.47C143.269 65.5257 143.278 65.5851 143.276 65.6445L142.759 73.3886C142.753 73.5001 142.704 73.6047 142.622 73.6812C142.541 73.7576 142.434 73.8001 142.322 73.7999V73.7999ZM133.02 72.9249H141.919L142.366 66.0558H133.467L133.02 72.9249Z" fill="#D1D3D4"/>
<path d="M182.959 68.1559H152.114C151.765 68.1559 151.432 68.0176 151.185 67.7714C150.939 67.5253 150.801 67.1914 150.801 66.8433C150.801 66.4952 150.939 66.1614 151.185 65.9152C151.432 65.6691 151.765 65.5308 152.114 65.5308H182.959C183.307 65.5308 183.641 65.6691 183.887 65.9152C184.133 66.1614 184.271 66.4952 184.271 66.8433C184.271 67.1914 184.133 67.5253 183.887 67.7714C183.641 68.0176 183.307 68.1559 182.959 68.1559Z" fill="#D1D3D4"/>
<path d="M176.195 72.5836H151.816C151.468 72.5836 151.134 72.4453 150.888 72.1992C150.642 71.953 150.504 71.6191 150.504 71.271C150.504 70.9229 150.642 70.5891 150.888 70.3429C151.134 70.0968 151.468 69.9585 151.816 69.9585H176.195C176.543 69.9585 176.877 70.0968 177.123 70.3429C177.369 70.5891 177.507 70.9229 177.507 71.271C177.507 71.6191 177.369 71.953 177.123 72.1992C176.877 72.4453 176.543 72.5836 176.195 72.5836Z" fill="#D1D3D4"/>
<path d="M136.687 72.0936C136.588 72.1069 136.488 72.1069 136.389 72.0936C136.198 72.0444 136.02 71.9528 135.868 71.8255C135.717 71.6983 135.596 71.5387 135.514 71.3585L134.709 69.6084C134.638 69.451 134.599 69.2812 134.594 69.1087C134.589 68.9362 134.618 68.7644 134.68 68.6031C134.741 68.4419 134.834 68.2942 134.952 68.1687C135.07 68.0432 135.212 67.9422 135.37 67.8715C135.527 67.8008 135.697 67.7619 135.87 67.7568C136.042 67.7518 136.214 67.7807 136.375 67.8421C136.536 67.9034 136.684 67.996 136.81 68.1144C136.935 68.2328 137.036 68.3747 137.107 68.5321L137.203 68.7509L139.198 67.1321C139.329 67.0086 139.485 66.9135 139.654 66.8527C139.824 66.7918 140.004 66.7666 140.184 66.7785C140.364 66.7904 140.539 66.8393 140.7 66.922C140.86 67.0047 141.001 67.1194 141.115 67.2592C141.229 67.3989 141.313 67.5606 141.361 67.7341C141.41 67.9077 141.422 68.0894 141.398 68.2679C141.373 68.4465 141.312 68.618 141.218 68.7718C141.124 68.9257 140.999 69.0586 140.852 69.1622L137.544 71.8661C137.293 72.0385 136.99 72.1188 136.687 72.0936V72.0936Z" fill="#68E1FD"/>
<path d="M195.384 61.3043H189.565C189.504 61.3048 189.443 61.2917 189.387 61.266C189.331 61.2403 189.281 61.2026 189.241 61.1556C189.199 61.1102 189.168 61.056 189.15 60.9969C189.132 60.9378 189.127 60.8754 189.136 60.8143C189.542 57.7411 190.919 54.8777 193.065 52.6414C193.487 52.1954 193.937 51.7774 194.413 51.3901C196.777 49.3945 199.718 48.2078 202.805 48.0037C202.866 47.9974 202.927 48.0052 202.985 48.0264C203.043 48.0476 203.095 48.0818 203.137 48.1262C203.182 48.1706 203.217 48.224 203.239 48.2828C203.262 48.3416 203.272 48.4046 203.268 48.4675L202.883 54.2778C202.878 54.3807 202.836 54.4784 202.766 54.5536C202.695 54.6288 202.601 54.6768 202.498 54.689C201.152 54.8442 199.873 55.3613 198.797 56.1853C198.342 56.5272 197.925 56.9175 197.554 57.3491C196.662 58.3744 196.058 59.6187 195.804 60.9543C195.786 61.0524 195.734 61.1411 195.657 61.205C195.581 61.2688 195.484 61.304 195.384 61.3043V61.3043ZM190.073 60.4293H195.026C195.34 59.0764 195.979 57.8208 196.889 56.7716C197.302 56.2916 197.766 55.8574 198.272 55.4766C199.376 54.6385 200.667 54.0828 202.035 53.8577L202.358 48.905C199.636 49.191 197.063 50.2885 194.973 52.0552C194.527 52.4265 194.103 52.8238 193.704 53.2452C191.808 55.2264 190.543 57.7272 190.073 60.4293V60.4293Z" fill="#D1D3D4"/>
<path d="M201.947 75.515C201.641 75.515 201.343 75.515 201.072 75.515C197.796 75.3284 194.718 73.8867 192.477 71.4896C190.237 69.0925 189.006 65.9242 189.04 62.6431C189.04 62.5271 189.086 62.4158 189.168 62.3338C189.25 62.2517 189.362 62.2056 189.478 62.2056H195.297C195.408 62.2054 195.516 62.2479 195.597 62.3243C195.679 62.4008 195.728 62.5055 195.734 62.6169C195.791 63.9069 196.226 65.1517 196.986 66.1958C197.295 66.6237 197.657 67.0116 198.062 67.3509C199.058 68.1764 200.276 68.6906 201.562 68.8297C202.109 68.8909 202.661 68.8909 203.207 68.8297C204.549 68.6688 205.824 68.1522 206.9 67.3334C207.355 66.9915 207.771 66.6012 208.142 66.1695C209.035 65.1443 209.639 63.9 209.892 62.5644C209.936 62.2931 209.971 62.0219 209.989 61.7418C210.006 61.4618 209.989 61.1906 209.989 60.9193C209.93 59.6325 209.495 58.3913 208.737 57.3491C208.674 57.2641 208.645 57.1582 208.656 57.0527C208.668 56.9472 208.719 56.8499 208.799 56.7804L213.174 52.6589C213.218 52.6176 213.271 52.586 213.328 52.5664C213.385 52.5468 213.446 52.5396 213.506 52.5452C213.566 52.5477 213.624 52.5631 213.677 52.5903C213.73 52.6175 213.776 52.6558 213.813 52.7027C215.694 55.0184 216.709 57.918 216.683 60.9018V61.7768C216.683 61.7768 216.639 62.3806 216.595 62.6519C216.187 65.7218 214.811 68.5817 212.666 70.816C212.245 71.265 211.795 71.6859 211.319 72.0761C208.956 74.0733 206.015 75.2602 202.927 75.4625C202.551 75.5062 202.245 75.515 201.947 75.515V75.515ZM189.898 63.0457C189.965 65.6782 190.904 68.214 192.567 70.256C192.907 70.6746 193.275 71.0693 193.669 71.4373C195.7 73.3338 198.332 74.4579 201.107 74.6137C201.667 74.6487 202.228 74.6487 202.787 74.6137C205.686 74.4172 208.446 73.2979 210.663 71.4198C211.113 71.053 211.536 70.6553 211.931 70.2297C213.949 68.1263 215.245 65.4356 215.633 62.5469C215.633 62.2669 215.694 61.9956 215.711 61.6718C215.729 61.3481 215.711 61.1118 215.711 60.7968C215.732 58.1783 214.896 55.6249 213.331 53.5252L209.569 57.0254C210.291 58.1402 210.704 59.4264 210.768 60.753V61.6281C210.745 61.9216 210.707 62.2137 210.654 62.5031C210.381 63.991 209.713 65.3781 208.72 66.5196C208.307 66.9996 207.843 67.4338 207.337 67.8146C206.136 68.727 204.714 69.3038 203.216 69.486C202.605 69.5472 201.989 69.5472 201.378 69.486C199.973 69.3713 198.63 68.8617 197.502 68.0159C197.039 67.6361 196.627 67.1978 196.277 66.7121C195.502 65.6459 195.024 64.3924 194.894 63.0807L189.898 63.0457Z" fill="#D1D3D4"/>
<path d="M212.273 51.7139C210.162 49.7574 207.437 48.5945 204.564 48.4237L204.187 54.2428C205.551 54.3997 206.84 54.95 207.897 55.8266L212.273 51.7139Z" fill="#68E1FD"/>
<path d="M50.2939 135.796C50.1779 135.796 50.0666 135.75 49.9845 135.668C49.9025 135.586 49.8564 135.475 49.8564 135.359C49.8564 135.201 49.8564 119.092 46.3562 110.613C42.9698 102.3 29.4242 100.515 29.2929 100.497C29.1769 100.483 29.0712 100.424 28.9989 100.332C28.9267 100.24 28.894 100.123 28.9079 100.007C28.9219 99.8913 28.9813 99.7856 29.0732 99.7133C29.1651 99.6411 29.2819 99.6084 29.3979 99.6223C29.9755 99.6923 43.5823 101.495 47.17 110.28C50.6702 118.908 50.7227 134.685 50.7227 135.35C50.7238 135.408 50.7137 135.465 50.6927 135.518C50.6718 135.572 50.6406 135.621 50.6007 135.662C50.5609 135.704 50.5133 135.737 50.4607 135.76C50.408 135.783 50.3514 135.795 50.2939 135.796V135.796Z" fill="white"/>
</svg>
