<svg width="241" height="224" viewBox="0 0 241 224" fill="none" xmlns="http://www.w3.org/2000/svg">
<path d="M23.766 159.649L135.205 223.99L240.781 163.033L128.583 99.2618L23.766 159.649Z" fill="#EFEFEF"/>
<path d="M133.504 177.987C126.366 182.149 104.265 193.512 93.2819 199.781C101.596 204.829 111.918 210.565 112.859 211.117L150.657 186.98C148.73 185.967 142.397 182.384 133.504 177.987V177.987Z" fill="url(#paint0_linear_213_234)"/>
<path d="M207.534 145.898C194.208 153.669 184.682 158.89 164.182 170.596C179.697 180.023 191.72 188.69 193.466 189.721L239.533 162.68C235.959 160.798 224.126 154.104 207.534 145.898Z" fill="url(#paint1_linear_213_234)"/>
<path d="M0 62.3417L119.156 0L129.958 86.8858L12.8917 151.417L0 62.3417Z" fill="#68E1FD"/>
<path d="M31.7091 126.158L25.3673 81.2767L30.8859 78.8341L37.1191 123.245L31.7091 126.158Z" fill="white"/>
<path d="M40.9279 84.7598L45.6141 118.532L40.186 121.427L35.4817 87.6728C37.3634 86.7682 39.1366 85.6916 40.9279 84.7598V84.7598Z" fill="#5ED18D"/>
<path d="M66.3223 105.414L60.3243 61.1294L65.8881 58.7682L71.7776 102.582L66.3223 105.414Z" fill="white"/>
<path d="M75.93 64.6758L80.3539 97.9953L74.9258 100.809L70.4748 67.5437C72.3746 66.6209 74.1207 65.5895 75.93 64.6758Z" fill="#5ED18D"/>
<path d="M97.3801 87.5462L91.6987 43.7957L97.3077 41.5069L102.881 84.7869L97.3801 87.5462Z" fill="white"/>
<path d="M107.341 47.4144L111.529 80.3268L106.02 83.0409L101.804 50.1737C103.713 49.3052 105.513 48.301 107.341 47.4144Z" fill="#5ED18D"/>
<path d="M32.8581 131.876C37.4841 129.312 42.113 126.758 46.745 124.213C47.4597 123.824 46.6183 122.693 45.9036 123.082C41.2656 125.627 36.6336 128.182 32.0077 130.745C31.293 131.143 32.1434 132.274 32.8581 131.876V131.876Z" fill="#F2F2F2"/>
<path d="M68.1317 109.838C72.7998 107.353 77.474 104.874 82.1543 102.401C82.878 102.021 82.0367 100.899 81.3129 101.279C76.6327 103.746 71.9585 106.222 67.2903 108.707C66.5666 109.096 67.4079 110.218 68.1317 109.829V109.838Z" fill="#F2F2F2"/>
<path d="M99.4066 93.1009C104.111 90.6884 108.821 88.276 113.538 85.8635C114.271 85.4926 113.429 84.3798 112.705 84.7507C107.989 87.1632 103.279 89.5757 98.5743 91.9882C97.8506 92.3591 98.6829 93.4809 99.4066 93.1009V93.1009Z" fill="#F2F2F2"/>
<path d="M44.7728 50.6894L54.281 120.115C54.3353 120.513 54.9776 120.513 54.9233 120.115L45.4241 50.7075C45.3699 50.3185 44.7185 50.2913 44.7728 50.6894V50.6894Z" fill="#F2F2F2"/>
<path d="M81.6115 30.7683L90.5859 99.2166C90.6402 99.6056 91.2825 99.6147 91.2373 99.2166L82.2719 30.7773C82.2176 30.4155 81.5662 30.3793 81.6115 30.7683V30.7683Z" fill="#F2F2F2"/>
<path d="M4.5415 64.3863L116.577 5.58189L126.981 84.6964L16.23 145.5L4.5415 64.3863Z" stroke="#F2F2F2" stroke-width="0.904683" stroke-miterlimit="10"/>
<path d="M239.542 162.689L210.456 145.898L194.606 154.891L223.972 171.89L239.542 162.689Z" fill="#FFB164"/>
<path d="M208.982 155.967V159.333L222.914 167.185L230.577 162.662V159.713" fill="#DBDBDB"/>
<path d="M230.577 159.713L216.599 151.652L208.982 155.967L223.095 164.137L230.577 159.713Z" fill="#606060"/>
<path d="M210.809 86.8224L194.652 78.8884V155.026L210.809 145.898V86.8224Z" fill="#E87F18"/>
<path d="M239.542 110.896L210.456 94.1051L194.606 103.098L223.972 120.097L239.542 110.896Z" fill="#FFB164"/>
<path d="M219.974 102.265L228.903 97.0996L231.78 98.6647L222.851 104.391L219.974 102.265Z" fill="#19847E"/>
<path d="M222.724 103.668V114.985L231.78 109.937V98.6647L222.724 103.668Z" fill="#04AAA8"/>
<path d="M222.724 103.668L219.974 102.265V113.465L222.724 114.985" fill="#2252A4"/>
<path d="M239.587 86.6867L210.502 69.8958L194.652 78.8884L224.027 95.8874L239.587 86.6867Z" fill="#FFB164"/>
<path d="M239.587 136.625L210.502 119.834L194.652 128.827L224.027 145.826L239.587 136.625Z" fill="#FFB164"/>
<path d="M224.027 95.8874L239.587 86.6867L239.542 162.689L223.972 171.89L224.027 95.8874Z" fill="#FF9C28"/>
<path d="M197.149 117.527L205.001 112.977L207.534 114.352L199.673 119.391L197.149 117.527Z" fill="#19847E"/>
<path d="M199.564 118.758V128.709L207.534 124.267V114.352L199.564 118.758Z" fill="#04AAA8"/>
<path d="M199.564 118.758L197.149 117.527V127.379L199.564 128.709" fill="#2252A4"/>
<path d="M200.116 118.088L209.036 112.923L211.922 114.479L202.984 120.205L200.116 118.088Z" fill="#19847E"/>
<path d="M202.866 119.491V130.808L211.922 125.751V114.479L202.866 119.491Z" fill="#04AAA8"/>
<path d="M202.866 119.491L200.116 118.088V129.288L202.866 130.808" fill="#2252A4"/>
<path d="M142.424 169.33C142.424 169.33 144.062 178.268 142.75 179.172C142.75 179.172 134.309 175.807 132.952 179.037C131.885 181.588 137.928 184.338 141.094 185.442C144.261 186.546 150.304 188.391 151.498 185.867C152.692 183.343 148.522 164.426 148.522 164.426" fill="#352118"/>
<path d="M139.502 175.888C138.308 156.791 134.662 106.355 139.222 94.1232C144.966 78.6984 152.122 91.8706 152.647 98.8276C153.136 105.242 152.131 168.289 151.996 177.327C150.548 182.167 141.592 180.928 139.502 175.888V175.888Z" fill="#487A31"/>
<path d="M108.472 74.1388L103.523 52.8697L117.5 46.3288L124.367 67.9507L108.472 74.1388Z" fill="#352118"/>
<path d="M124.991 60.6319C124.991 60.6319 119.056 53.5482 117.699 54.7967C116.342 56.0451 119.78 59.2387 119.78 59.2387C119.669 59.8501 119.683 60.4776 119.819 61.0837C119.956 61.6898 120.214 62.2623 120.576 62.7669C121.825 64.7391 123.643 65.7524 124.367 65.5262C125.091 65.3 127.841 67.4079 127.841 67.4079L131.523 64.0335L124.991 60.6319Z" fill="#FFC799"/>
<path d="M123.634 66.6299C123.634 66.6299 122.557 61.4823 126.71 59.2296L136.245 62.9298L129.913 69.8053L123.634 66.6299Z" fill="#47BF78"/>
<path d="M113.149 72.3656C113.149 72.3656 111.638 69.3801 112.036 67.8422C112.434 66.3042 114.361 64.1058 113.655 62.9931C112.95 61.8803 110.426 65.291 109.919 65.7524C109.412 66.2138 105.26 60.8671 105.26 60.8671C105.26 60.8671 103.885 66.5666 104.355 69.4254C104.826 72.2842 108.698 73.3698 110.109 76.111" fill="#FFC799"/>
<path d="M128.004 175.717C128.004 175.717 129.641 184.655 128.329 185.56C128.329 185.56 119.889 182.194 118.532 185.424C117.464 187.975 123.507 190.725 126.674 191.829C129.84 192.933 135.883 194.778 137.078 192.254C138.272 189.73 134.101 170.813 134.101 170.813" fill="#352118"/>
<path d="M123.634 179.281C123.878 160.147 124.041 109.62 129.505 97.7329C136.399 82.7875 143.682 97.95 143.682 104.97C143.682 111.403 138.417 175.355 137.602 184.356C132.753 186.663 125.344 184.474 123.634 179.281Z" fill="#487A31"/>
<path d="M129.37 98.4567C128.564 90.7578 126.438 67.6974 129.451 65.5172C134.952 61.4461 148.377 53.5482 151.163 61.0752C153.353 66.9104 152.819 84.4884 151.498 94.1504C145.039 97.9953 136.707 100.338 129.37 98.4567Z" fill="#5ED18D"/>
<path d="M137.512 54.6157C137.657 54.8328 137.512 60.6319 137.512 60.6319C137.512 60.6319 139.62 60.7857 143.627 58.0264L143.302 51.9017L137.512 54.6157Z" fill="#FFC799"/>
<path d="M134.056 43.1805C134.087 45.6887 133.93 48.1958 133.585 50.6804C132.844 54.1543 133.585 57.565 136.951 58.6235C140 59.5824 145.871 52.2183 144.804 49.0881C143.736 45.9579 139.774 38.82 134.056 43.1805Z" fill="#FFC799"/>
<path d="M148.938 41.3892C148.847 40.4633 148.523 39.5756 147.995 38.8097C147.466 38.0438 146.752 37.425 145.918 37.0114C145.085 36.5979 144.16 36.4032 143.231 36.4458C142.301 36.4884 141.398 36.7668 140.606 37.2548C139.294 36.5578 137.764 36.3957 136.336 36.8025C135.597 37.0117 134.924 37.4055 134.379 37.9468C133.835 38.4881 133.437 39.1591 133.224 39.8965C133.197 40.0218 133.179 40.1488 133.169 40.2765C132.687 41.0539 132.491 41.9757 132.617 42.882C132.709 43.5451 132.942 44.1808 133.302 44.7459C133.661 45.3109 134.137 45.7922 134.698 46.1569C134.921 46.3283 135.16 46.4769 135.413 46.6002C135.934 46.8773 136.479 47.1074 137.041 47.2878C137.212 47.3416 137.388 47.375 137.566 47.3873C137.974 47.5017 138.325 47.7627 138.552 48.1201C138.623 48.281 138.68 48.4474 138.724 48.6177C138.29 51.1689 137.72 54.8781 139.828 56.5427C141.465 57.8364 143.618 57.366 145.301 56.2622L145.536 56.1537C146.001 55.8881 146.407 55.5311 146.731 55.1042C146.857 54.9685 146.975 54.8328 147.083 54.6881L147.138 54.6067C151.2 50.7165 154.873 43.8409 148.938 41.3892V41.3892Z" fill="#352118"/>
<path d="M129.37 65.5172C129.37 65.5172 127.036 67.3898 124.91 72.6189C122.946 77.4409 118.296 76.8257 115.229 71.1262C115.011 70.6992 114.632 70.3765 114.176 70.2289C113.719 70.0814 113.223 70.121 112.796 70.3391C110.987 71.3071 108.272 73.0532 108.119 75.2968C107.893 78.6441 118.197 87.9623 124.955 89.0661C131.713 90.1698 136.879 79.5307 136.879 79.5307" fill="#5ED18D"/>
<path d="M220.878 74.0212C218.201 73.9033 215.634 72.9156 213.569 71.2076V78.9698C213.567 80.0306 213.776 81.0813 214.181 82.0615C214.587 83.0417 215.182 83.9321 215.933 84.6818C216.683 85.4316 217.574 86.0257 218.555 86.4303C219.536 86.8349 220.587 87.042 221.647 87.0396C223.785 87.0396 225.835 86.1903 227.347 84.6786C228.859 83.167 229.708 81.1167 229.708 78.9788V71.081C226.931 72.2028 223.81 74.2745 220.878 74.0212V74.0212Z" fill="#68E1FD"/>
<path d="M221.62 75.4325C226.072 75.4325 229.681 73.5207 229.681 71.1624C229.681 68.8041 226.072 66.8923 221.62 66.8923C217.168 66.8923 213.559 68.8041 213.559 71.1624C213.559 73.5207 217.168 75.4325 221.62 75.4325Z" fill="#5ED18D"/>
<path d="M221.647 71.8861C221.647 71.8861 216.165 71.081 214.717 62.2151C214.69 62.2151 219.358 64.7934 221.647 71.8861Z" fill="#5ED18D"/>
<path d="M222.425 70.7553C222.425 70.7553 216.138 59.4739 222.425 51.9017C224.343 58.0399 224.343 64.6171 222.425 70.7553V70.7553Z" fill="#5ED18D"/>
<path d="M221.647 63.6626C221.647 63.6626 216.165 62.8574 214.717 53.9915C214.69 53.9915 219.358 56.5698 221.647 63.6626Z" fill="#5ED18D"/>
<path d="M222.281 67.2813C222.281 67.2813 220.905 61.9165 228.523 57.1579C228.532 57.1488 227.98 62.4593 222.281 67.2813Z" fill="#5ED18D"/>
<path d="M221.62 75.4325C226.072 75.4325 229.681 73.5207 229.681 71.1624C229.681 68.8041 226.072 66.8923 221.62 66.8923C217.168 66.8923 213.559 68.8041 213.559 71.1624C213.559 73.5207 217.168 75.4325 221.62 75.4325Z" fill="#146666"/>
<path d="M221.647 71.8861C221.647 71.8861 216.165 71.081 214.718 62.2151C214.69 62.2151 219.359 64.7934 221.647 71.8861Z" fill="#5ED18D"/>
<path d="M222.425 70.7553C222.425 70.7553 216.138 59.4739 222.425 51.9017C224.343 58.0399 224.343 64.6171 222.425 70.7553V70.7553Z" fill="#5ED18D"/>
<path d="M221.647 63.6626C221.647 63.6626 216.165 62.8574 214.718 53.9915C214.69 53.9915 219.359 56.5698 221.647 63.6626Z" fill="#5ED18D"/>
<path d="M222.281 67.2813C222.281 67.2813 220.906 61.9165 228.523 57.1579C228.532 57.1488 227.98 62.4593 222.281 67.2813Z" fill="#5ED18D"/>
<defs>
<linearGradient id="paint0_linear_213_234" x1="145.12" y1="178.168" x2="112.135" y2="199.835" gradientUnits="userSpaceOnUse">
<stop stop-color="#808080"/>
<stop offset="1" stop-color="white"/>
</linearGradient>
<linearGradient id="paint1_linear_213_234" x1="216.147" y1="158.111" x2="182.022" y2="178.494" gradientUnits="userSpaceOnUse">
<stop stop-color="#808080"/>
<stop offset="1" stop-color="white"/>
</linearGradient>
</defs>
</svg>
